<svg width="160px" height="160px" viewBox="0 0 160 160" xmlns="http://www.w3.org/2000/svg" fill="#6b7280">
  <path d=" M 1.52 11.36 C 3.56 4.82 10.43 0.41 17.15 0.66 C 20.60 1.55 24.19 2.69 26.64 5.43 C 44.39 23.15 62.27 40.76 79.98 58.52 C 97.44 40.82 115.11 23.33 132.67 5.73 C 138.07 0.01 148.01 -0.27 153.65 5.24 C 159.54 10.33 160.28 20.15 155.10 25.99 C 137.23 43.99 119.19 61.83 101.34 79.85 C 119.41 97.37 137.07 115.32 154.99 133.01 C 157.72 135.50 159.40 138.94 160.00 142.57 L 160.00 145.56 C 159.48 154.97 148.85 161.80 140.09 158.52 C 136.76 157.81 134.00 155.67 131.70 153.24 C 114.46 135.88 97.01 118.72 79.87 101.26 C 61.93 119.18 44.01 137.14 26.06 155.05 C 20.09 160.64 10.04 160.64 4.09 155.02 C 1.83 152.69 0.59 149.58 0.00 146.43 L 0.00 143.03 C 0.55 139.29 2.35 135.79 5.14 133.24 C 22.98 115.52 40.61 97.58 58.56 79.98 C 40.68 62.35 23.03 44.47 5.23 26.76 C 1.22 22.88 -0.36 16.64 1.52 11.36 Z" />
</svg>
