<svg width="160px" height="160px" viewBox="0 0 160 160" xmlns="http://www.w3.org/2000/svg" fill="#000">
  <path d=" M 64.47 15.14 C 64.68 6.77 72.58 -0.43 80.96 0.22 C 89.20 0.29 96.26 7.78 96.16 15.96 C 96.26 31.86 96.15 47.77 96.21 63.67 C 111.80 63.59 127.39 63.68 142.98 63.62 C 149.04 63.33 154.98 66.93 157.69 72.32 C 160.67 78.03 159.65 85.55 155.14 90.18 C 152.08 93.55 147.55 95.39 143.02 95.30 C 127.42 95.26 111.82 95.34 96.21 95.25 C 96.17 110.82 96.22 126.39 96.19 141.96 C 96.36 148.20 92.67 154.33 86.98 156.94 C 77.23 162.02 64.26 153.94 64.45 142.99 C 64.39 127.07 64.49 111.14 64.40 95.22 C 48.27 95.38 32.13 95.26 16.00 95.29 C 7.81 95.38 0.39 88.15 0.37 79.94 C -0.16 71.37 7.46 63.41 16.05 63.63 C 32.17 63.68 48.28 63.55 64.40 63.71 C 64.51 47.52 64.36 31.33 64.47 15.14 Z" />
</svg>
