<svg width="160px" height="160px" viewBox="0 0 160 160" xmlns="http://www.w3.org/2000/svg" fill="#000">
  <path d=" M 10.39 5.61 C 16.21 4.99 22.09 5.48 27.93 5.36 C 28.03 10.89 27.40 16.48 28.18 21.97 C 29.61 26.30 36.44 26.19 37.62 21.76 C 38.13 16.36 37.71 10.90 37.73 5.48 C 64.32 5.16 90.93 5.43 117.53 5.34 C 117.67 10.85 117.12 16.39 117.75 21.87 C 119.03 26.26 125.95 26.27 127.21 21.86 C 127.85 16.38 127.29 10.84 127.43 5.34 C 133.26 5.47 139.11 5.05 144.92 5.56 C 152.03 6.66 159.09 12.48 159.30 20.06 C 159.44 26.12 159.27 32.17 159.34 38.23 C 106.22 38.22 53.11 38.23 0.00 38.22 L 0.00 18.13 C 0.81 12.49 4.47 6.74 10.39 5.61 Z" />
  <path d=" M 0.00 48.64 C 53.33 48.63 106.67 48.62 160.00 48.65 L 160.00 140.52 C 158.79 148.99 150.37 154.94 142.09 154.67 C 99.02 154.62 55.95 154.72 12.88 154.62 C 6.02 154.77 0.82 148.69 0.00 142.23 L 0.00 48.64 M 30.32 67.63 C 29.14 68.33 28.38 69.66 28.42 71.04 C 28.38 75.34 28.32 79.65 28.45 83.96 C 28.49 86.25 30.91 87.69 33.02 87.46 C 36.98 87.48 40.96 87.59 44.92 87.39 C 47.07 87.32 48.81 85.24 48.75 83.13 C 48.83 79.05 48.82 74.96 48.76 70.88 C 48.85 68.45 46.33 66.76 44.06 67.11 C 39.51 67.36 34.72 66.49 30.32 67.63 M 70.25 67.33 C 68.76 67.86 67.64 69.39 67.74 71.00 C 67.69 75.33 67.60 79.67 67.79 83.99 C 67.86 86.09 70.07 87.63 72.07 87.45 C 76.04 87.52 80.02 87.52 83.99 87.45 C 85.97 87.65 88.10 86.11 88.10 84.04 C 88.26 79.71 88.20 75.37 88.13 71.04 C 88.25 68.87 86.27 66.95 84.11 67.14 C 79.49 67.16 74.84 66.85 70.25 67.33 M 109.43 67.63 C 106.37 69.72 107.88 73.92 107.54 77.02 C 107.93 80.39 106.11 85.44 110.07 87.20 C 114.66 87.80 119.33 87.40 123.94 87.44 C 125.87 87.65 127.89 86.07 127.86 84.09 C 127.98 79.69 127.93 75.28 127.89 70.88 C 128.03 68.32 125.32 66.71 123.00 67.10 C 118.50 67.36 113.79 66.50 109.43 67.63 M 30.34 112.42 C 27.13 114.50 28.78 118.86 28.39 122.01 C 28.75 125.35 26.98 130.38 31.02 132.06 C 35.34 132.55 39.72 132.24 44.06 132.26 C 46.50 132.53 48.78 130.42 48.76 127.99 C 48.72 123.47 49.05 118.91 48.57 114.42 C 47.47 111.28 43.65 111.83 41.02 111.81 C 37.49 112.10 33.73 111.18 30.34 112.42 M 70.13 112.19 C 68.60 112.80 67.60 114.41 67.73 116.06 C 67.67 120.04 67.67 124.02 67.72 128.00 C 67.47 130.36 69.66 132.49 72.00 132.26 C 76.36 132.28 80.74 132.43 85.09 132.17 C 87.07 131.98 88.37 129.85 88.15 127.97 C 88.15 123.66 88.32 119.33 88.05 115.03 C 87.72 112.71 85.20 111.61 83.08 111.83 C 78.78 111.99 74.37 111.40 70.13 112.19 M 110.02 112.15 C 108.47 112.74 107.44 114.40 107.55 116.06 C 107.51 120.04 107.51 124.03 107.55 128.02 C 107.32 130.45 109.60 132.54 111.99 132.27 C 116.33 132.28 120.68 132.44 125.02 132.16 C 126.99 131.89 128.15 129.88 127.91 128.00 C 127.89 123.66 128.05 119.31 127.82 114.98 C 127.57 112.72 125.06 111.63 123.02 111.83 C 118.70 111.98 114.30 111.43 110.02 112.15 Z" />
</svg>
