<svg width="160px" height="160px" viewBox="0 0 160 160" xmlns="http://www.w3.org/2000/svg" fill="#fff">
  <path d=" M 66.48 0.00 L 93.34 0.00 C 96.95 0.61 100.56 2.15 102.85 5.12 C 105.80 9.14 106.73 14.17 108.40 18.79 C 116.60 18.68 124.80 18.78 133.00 18.69 C 136.26 18.72 139.72 18.69 142.66 20.30 C 147.94 23.04 151.05 29.07 150.72 34.95 C 150.47 38.84 151.96 44.42 147.49 46.45 C 144.06 47.24 140.49 46.79 137.00 46.86 C 98.98 46.84 60.96 46.83 22.93 46.86 C 18.35 46.75 13.17 47.77 9.39 44.47 C 9.72 38.41 8.04 31.77 11.32 26.24 C 13.76 21.63 18.80 18.63 24.03 18.75 C 33.21 18.68 42.40 18.73 51.59 18.79 C 53.05 14.61 54.07 10.21 56.29 6.33 C 58.45 2.72 62.45 0.71 66.48 0.00 M 64.71 10.75 C 63.01 13.10 62.44 16.05 61.43 18.72 C 73.79 18.80 86.16 18.63 98.52 18.81 C 97.17 15.70 97.10 11.09 93.50 9.63 C 86.38 8.98 79.19 9.61 72.05 9.34 C 69.61 9.53 66.60 8.77 64.71 10.75 Z" />
  <path d=" M 20.21 56.84 C 60.07 56.85 99.93 56.85 139.79 56.84 C 137.49 84.92 135.12 112.99 132.85 141.06 C 132.44 145.64 132.52 150.73 129.47 154.50 C 127.29 157.54 123.77 159.18 120.22 160.00 L 40.02 160.00 C 33.59 159.11 28.10 153.72 27.70 147.14 C 25.15 117.05 22.71 86.94 20.21 56.84 M 50.42 66.47 C 47.95 67.07 46.97 69.67 47.20 71.98 C 47.20 92.98 47.23 113.99 47.19 135.00 C 47.23 136.82 47.17 139.01 48.86 140.19 C 51.53 142.67 56.65 140.60 56.50 136.86 C 56.68 115.92 56.46 94.96 56.60 74.02 C 56.53 72.32 56.71 70.56 56.16 68.93 C 55.26 66.76 52.59 65.78 50.42 66.47 M 78.48 66.49 C 76.07 67.09 75.10 69.67 75.31 71.93 C 75.38 93.58 75.22 115.24 75.39 136.88 C 75.26 140.45 80.00 142.59 82.72 140.40 C 84.95 139.06 84.65 136.20 84.71 133.97 C 84.60 112.95 84.76 91.93 84.64 70.91 C 84.93 67.72 81.36 65.43 78.48 66.49 M 106.42 66.56 C 104.25 67.37 103.24 69.74 103.44 71.93 C 103.43 92.96 103.46 114.00 103.42 135.03 C 103.38 137.02 103.54 139.44 105.54 140.50 C 108.63 142.75 113.34 139.89 112.78 136.11 C 112.78 114.39 112.85 92.65 112.74 70.93 C 112.97 67.76 109.30 65.22 106.42 66.56 Z" />
</svg>
