<svg width="400px" height="400px" viewBox="0 0 400 400" xmlns="http://www.w3.org/2000/svg">
  <path fill="#df9f7a" d=" M 289.92 32.82 C 293.97 29.03 299.66 27.61 305.07 27.45 C 316.28 28.27 325.21 40.05 322.73 51.05 C 321.42 59.03 314.91 65.59 307.01 67.19 C 304.15 67.33 301.30 67.48 298.44 67.62 L 298.70 68.85 C 296.78 68.87 294.86 68.88 292.95 69.01 C 294.75 68.53 296.53 67.93 298.17 67.02 C 293.35 64.82 288.54 61.89 285.89 57.12 C 281.24 49.41 283.18 38.69 289.92 32.82 Z" />
  <path fill="#df9f7a" d=" M 145.91 42.93 C 148.30 31.88 161.66 24.32 172.16 29.02 C 179.63 31.79 184.34 39.31 185.22 47.02 C 184.46 51.44 183.58 56.11 180.54 59.61 C 177.90 63.13 173.73 64.86 170.40 67.58 C 166.63 67.27 162.84 67.13 159.13 66.36 C 149.75 63.21 143.22 52.69 145.91 42.93 Z" />
  <path fill="#ffc796" d=" M 87.89 29.71 C 92.60 27.62 98.15 27.08 103.00 29.06 C 108.85 31.46 113.60 36.65 115.14 42.83 C 116.86 49.02 114.75 55.82 110.63 60.59 C 107.85 63.83 103.79 65.40 100.09 67.30 C 97.46 67.63 94.80 67.56 92.17 67.31 C 90.02 65.95 87.51 65.23 85.46 63.70 C 79.59 60.01 75.94 52.95 76.52 46.02 C 77.27 39.18 81.50 32.55 87.89 29.71 Z" />
  <path fill="#ffc796" d=" M 226.18 29.32 C 237.10 24.03 251.37 32.17 253.29 43.97 C 254.54 50.54 252.02 57.64 247.02 62.04 C 244.34 64.37 240.84 65.47 238.17 67.83 C 235.68 67.52 233.14 67.52 230.66 67.93 C 227.00 65.74 222.67 64.48 219.79 61.16 C 215.74 56.67 213.11 50.34 214.43 44.26 C 215.41 37.68 220.28 32.10 226.18 29.32 Z" />
<g fill="#b77e5a">
  <path d=" M 159.13 66.36 C 162.84 67.13 166.63 67.27 170.40 67.58 C 172.16 67.94 173.89 68.47 175.61 69.01 C 168.61 67.99 161.44 67.77 154.48 69.17 C 156.09 68.67 157.72 68.24 159.35 67.77 C 159.29 67.42 159.18 66.71 159.13 66.36 Z" />
  <path d=" M 92.17 67.31 C 94.80 67.56 97.46 67.63 100.09 67.30 C 103.39 69.34 107.47 69.46 110.87 71.34 C 120.91 76.09 127.76 85.95 130.02 96.69 C 130.63 94.94 131.52 93.31 132.16 91.58 C 131.25 95.98 130.55 100.45 130.51 104.96 C 130.58 126.63 130.51 148.30 130.55 169.97 C 107.42 170.09 84.28 169.76 61.15 170.06 C 61.17 145.64 61.11 121.21 61.18 96.79 C 63.56 95.25 63.43 92.12 64.67 89.82 C 68.45 79.69 77.44 71.86 87.90 69.25 C 89.41 68.83 91.07 68.56 92.17 67.31 Z" />
  <path d=" M 146.59 72.84 C 148.97 71.40 151.44 70.03 154.14 69.28 C 151.66 70.54 149.16 71.76 146.59 72.84 Z" />
  <path d=" M 175.77 69.05 C 177.37 69.30 178.90 69.90 180.23 70.85 C 178.49 72.14 176.35 70.92 175.77 69.05 Z" />
  <path d=" M 186.49 74.83 C 188.56 76.45 190.47 78.28 192.09 80.35 C 190.08 78.66 188.18 76.84 186.49 74.83 Z" />
</g>
  <path fill="#6957a1" d=" M 298.44 67.62 C 301.30 67.48 304.15 67.33 307.01 67.19 C 311.97 68.50 317.02 69.89 321.38 72.69 C 331.64 78.92 338.23 90.98 337.50 103.01 C 337.35 134.60 337.67 166.19 337.34 197.77 C 314.41 197.24 291.46 197.65 268.52 197.57 C 268.44 188.37 268.49 179.17 268.49 169.97 C 274.31 170.17 280.17 170.43 285.98 169.71 C 293.62 168.77 300.20 163.28 303.49 156.46 C 305.57 152.29 305.51 147.50 305.48 142.95 C 305.30 128.97 305.58 114.98 305.38 100.99 C 305.14 88.62 297.03 77.84 286.82 71.52 C 288.73 70.39 290.81 69.59 292.95 69.01 C 294.86 68.88 296.78 68.87 298.70 68.85 L 298.44 67.62 Z" />
  <path fill="#f7775b" d=" M 230.66 67.93 C 233.14 67.52 235.68 67.52 238.17 67.83 C 247.98 69.32 257.21 74.72 262.64 83.13 C 265.69 87.22 266.56 92.34 268.63 96.90 C 268.29 121.25 268.58 145.61 268.49 169.97 C 245.50 170.29 222.51 169.70 199.53 170.19 L 199.53 169.66 C 199.55 147.43 199.51 125.20 199.55 102.97 C 199.57 98.07 198.27 93.31 197.04 88.60 C 198.29 90.97 198.02 94.49 200.77 95.74 C 201.92 89.31 205.08 83.33 209.55 78.59 C 215.08 72.65 222.82 69.47 230.66 67.93 Z" />
  <path fill="#3a4b56" d=" M 154.14 69.28 L 154.48 69.17 C 161.44 67.77 168.61 67.99 175.61 69.01 L 175.77 69.05 C 176.35 70.92 178.49 72.14 180.23 70.85 C 180.69 71.08 181.61 71.54 182.07 71.76 C 181.96 74.03 184.24 75.41 186.28 74.61 L 186.49 74.83 C 188.18 76.84 190.08 78.66 192.09 80.35 C 193.39 81.90 194.48 83.60 195.48 85.36 C 195.51 85.41 195.57 85.53 195.61 85.59 C 196.14 86.56 196.62 87.57 197.04 88.60 C 198.27 93.31 199.57 98.07 199.55 102.97 C 199.51 125.20 199.55 147.43 199.53 169.66 C 176.54 170.38 153.54 169.85 130.55 169.97 C 130.51 148.30 130.58 126.63 130.51 104.96 C 130.55 100.45 131.25 95.98 132.16 91.58 C 132.39 90.74 132.63 89.91 132.88 89.08 C 133.13 88.51 133.62 87.38 133.87 86.81 C 136.23 82.23 139.39 78.02 143.55 74.92 C 145.10 75.14 146.04 74.49 146.35 72.96 L 146.59 72.84 C 149.16 71.76 151.66 70.54 154.14 69.28 Z" />
  <path fill="#3a4b56" d=" M 61.19 197.85 C 84.31 197.09 107.47 197.85 130.60 197.47 C 153.58 197.37 176.57 197.26 199.56 197.52 C 222.54 197.63 245.53 197.54 268.52 197.57 C 291.46 197.65 314.41 197.24 337.34 197.77 C 356.87 198.66 376.46 197.77 396.00 198.22 C 398.37 198.45 399.16 201.24 400.00 203.09 L 400.00 204.87 C 399.12 207.03 397.62 209.52 394.98 209.53 C 388.90 209.87 382.80 209.53 376.72 209.63 C 367.14 209.65 357.56 209.63 347.99 209.65 C 301.63 209.66 255.27 209.62 208.91 209.67 C 195.17 209.62 181.43 209.65 167.70 209.65 C 133.25 209.65 98.81 209.64 64.36 209.65 C 50.47 209.63 36.57 209.67 22.68 209.63 C 16.82 209.53 10.95 209.86 5.09 209.54 C 2.62 209.57 1.21 207.29 0.00 205.50 L 0.00 203.07 C 0.88 200.91 2.05 197.75 4.96 198.15 C 23.70 197.91 42.46 198.53 61.19 197.85 Z" />
  <path fill="#615c41" opacity="0.80" d=" M 182.07 71.76 C 183.68 72.36 185.18 73.26 186.28 74.61 C 184.24 75.41 181.96 74.03 182.07 71.76 Z" />
  <path fill="#997ab8" d=" M 268.63 96.90 C 270.82 86.33 277.27 76.74 286.82 71.52 C 297.03 77.84 305.14 88.62 305.38 100.99 C 305.58 114.98 305.30 128.97 305.48 142.95 C 305.51 147.50 305.57 152.29 303.49 156.46 C 300.20 163.28 293.62 168.77 285.98 169.71 C 280.17 170.43 274.31 170.17 268.49 169.97 C 268.58 145.61 268.29 121.25 268.63 96.90 Z" />
  <path fill="#5a4f39" opacity="0.75" d=" M 143.55 74.92 C 144.11 73.72 145.04 73.07 146.35 72.96 C 146.04 74.49 145.10 75.14 143.55 74.92 Z" />
  <path fill="#625026" opacity="0.49" d=" M 195.48 85.36 C 195.51 85.41 195.57 85.53 195.61 85.59 C 195.57 85.53 195.51 85.41 195.48 85.36 Z" />
  <path fill="#604b29" opacity="0.60" d=" M 132.88 89.08 C 133.13 88.51 133.62 87.38 133.87 86.81 C 133.62 87.38 133.13 88.51 132.88 89.08 Z" />
  <path fill="#98654c" d=" M 61.15 170.06 C 84.28 169.76 107.42 170.09 130.55 169.97 C 130.57 179.13 130.50 188.30 130.60 197.47 C 107.47 197.85 84.31 197.09 61.19 197.85 C 61.11 188.58 61.17 179.32 61.15 170.06 Z" />
  <path fill="#26363f" d=" M 130.55 169.97 C 153.54 169.85 176.54 170.38 199.53 169.66 L 199.53 170.19 C 199.54 179.30 199.50 188.41 199.56 197.52 C 176.57 197.26 153.58 197.37 130.60 197.47 C 130.50 188.30 130.57 179.13 130.55 169.97 Z" />
  <path fill="#f25853" d=" M 199.53 170.19 C 222.51 169.70 245.50 170.29 268.49 169.97 C 268.49 179.17 268.44 188.37 268.52 197.57 C 245.53 197.54 222.54 197.63 199.56 197.52 C 199.50 188.41 199.54 179.30 199.53 170.19 Z" />
<g fill="#d1e16f">
  <path d=" M 22.68 209.63 C 36.57 209.67 50.47 209.63 64.36 209.65 C 60.11 217.33 54.10 224.10 46.54 228.63 C 40.16 232.65 32.90 234.88 25.64 236.69 C 23.90 227.77 23.09 218.70 22.68 209.63 Z" />
  <path d=" M 167.70 209.65 C 181.43 209.65 195.17 209.62 208.91 209.67 C 217.61 218.24 226.35 227.44 230.72 239.07 C 232.52 243.92 233.52 250.36 229.34 254.29 C 224.87 258.21 218.69 259.20 212.97 259.72 C 201.70 260.31 189.92 259.41 179.67 254.32 C 175.41 252.34 172.76 248.21 171.19 243.94 C 167.13 233.03 166.47 221.14 167.70 209.65 Z" />
  <path d=" M 88.12 242.17 C 91.36 236.21 99.16 236.16 105.04 236.90 C 115.92 237.97 124.79 245.80 130.06 254.97 C 138.97 270.13 142.28 287.68 149.38 303.63 C 151.87 309.04 155.01 314.47 160.02 317.91 C 166.53 322.13 174.83 323.25 182.28 321.21 C 195.56 317.79 207.39 310.20 220.89 307.42 C 231.67 305.03 244.45 304.02 253.53 311.53 C 263.02 319.65 267.63 332.18 278.09 339.37 C 253.77 356.67 224.77 367.38 194.98 369.59 C 162.51 372.34 129.25 365.09 100.83 349.15 C 99.03 348.26 97.12 347.64 95.23 347.01 C 72.58 330.49 54.04 308.46 41.38 283.46 C 51.30 283.42 61.52 282.72 70.75 278.78 C 77.07 276.11 82.34 270.69 84.01 263.93 C 86.17 256.83 84.99 248.99 88.12 242.17 Z" />
</g>
  <path fill="#7ac2ed" d=" M 64.36 209.65 C 98.81 209.64 133.25 209.65 167.70 209.65 C 166.47 221.14 167.13 233.03 171.19 243.94 C 172.76 248.21 175.41 252.34 179.67 254.32 C 189.92 259.41 201.70 260.31 212.97 259.72 C 218.69 259.20 224.87 258.21 229.34 254.29 C 233.52 250.36 232.52 243.92 230.72 239.07 C 226.35 227.44 217.61 218.24 208.91 209.67 C 255.27 209.62 301.63 209.66 347.99 209.65 C 347.06 220.68 346.19 231.80 343.21 242.52 C 330.66 244.61 320.28 254.86 317.76 267.30 C 312.68 264.51 306.79 262.36 300.95 263.93 C 291.05 265.88 283.94 275.87 284.79 285.85 C 285.47 292.96 290.03 299.52 296.54 302.51 C 301.74 305.13 307.72 304.62 313.36 304.64 C 311.59 307.41 309.71 310.12 307.53 312.59 C 298.81 322.51 289.08 331.57 278.30 339.22 L 278.09 339.37 C 267.63 332.18 263.02 319.65 253.53 311.53 C 244.45 304.02 231.67 305.03 220.89 307.42 C 207.39 310.20 195.56 317.79 182.28 321.21 C 174.83 323.25 166.53 322.13 160.02 317.91 C 155.01 314.47 151.87 309.04 149.38 303.63 C 142.28 287.68 138.97 270.13 130.06 254.97 C 124.79 245.80 115.92 237.97 105.04 236.90 C 99.16 236.16 91.36 236.21 88.12 242.17 C 84.99 248.99 86.17 256.83 84.01 263.93 C 82.34 270.69 77.07 276.11 70.75 278.78 C 61.52 282.72 51.30 283.42 41.38 283.46 C 34.00 268.70 28.63 252.93 25.64 236.69 C 32.90 234.88 40.16 232.65 46.54 228.63 C 54.10 224.10 60.11 217.33 64.36 209.65 Z" />
  <path fill="#68a6dc" d=" M 347.99 209.65 C 357.56 209.63 367.14 209.65 376.72 209.63 C 376.56 223.74 374.15 237.75 370.55 251.37 C 370.03 250.87 369.50 250.38 368.97 249.91 C 362.01 243.78 352.36 241.09 343.21 242.52 C 346.19 231.80 347.06 220.68 347.99 209.65 Z" />
  <path fill="#68a6dc" d=" M 313.36 304.64 C 324.15 304.49 334.93 304.64 345.72 304.54 C 334.60 320.48 320.97 334.67 305.39 346.31 C 296.00 345.99 286.27 344.59 278.30 339.22 C 289.08 331.57 298.81 322.51 307.53 312.59 C 309.71 310.12 311.59 307.41 313.36 304.64 Z" />
  <path fill="#e6f8fc" d=" M 317.76 267.30 C 320.28 254.86 330.66 244.61 343.21 242.52 C 352.36 241.09 362.01 243.78 368.97 249.91 C 370.51 256.74 372.80 263.83 370.80 270.83 C 368.45 283.89 356.19 294.07 342.98 294.29 C 328.31 294.48 313.63 294.25 298.96 294.39 C 293.03 294.71 287.14 291.38 284.79 285.85 C 283.94 275.87 291.05 265.88 300.95 263.93 C 306.79 262.36 312.68 264.51 317.76 267.30 Z" />
  <path fill="#d0edf5" d=" M 368.97 249.91 C 369.50 250.38 370.03 250.87 370.55 251.37 C 376.81 257.47 379.91 266.34 379.69 274.99 C 388.74 271.65 399.58 278.44 400.00 288.19 L 400.00 290.83 C 399.36 298.37 392.54 304.50 385.02 304.53 C 371.92 304.58 358.82 304.54 345.72 304.54 C 334.93 304.64 324.15 304.49 313.36 304.64 C 307.72 304.62 301.74 305.13 296.54 302.51 C 290.03 299.52 285.47 292.96 284.79 285.85 C 287.14 291.38 293.03 294.71 298.96 294.39 C 313.63 294.25 328.31 294.48 342.98 294.29 C 356.19 294.07 368.45 283.89 370.80 270.83 C 372.80 263.83 370.51 256.74 368.97 249.91 Z" />
  <path fill="#9ccc4b" d=" M 278.09 339.37 L 278.30 339.22 C 286.27 344.59 296.00 345.99 305.39 346.31 C 278.94 366.04 246.91 377.99 214.05 380.74 C 210.49 381.92 206.70 381.81 203.01 381.83 C 196.96 381.81 190.82 382.20 184.91 380.68 C 152.72 377.86 121.14 366.43 95.23 347.01 C 97.12 347.64 99.03 348.26 100.83 349.15 C 129.25 365.09 162.51 372.34 194.98 369.59 C 224.77 367.38 253.77 356.67 278.09 339.37 Z" />
</svg>
