<svg width="160px" height="160px" viewBox="0 0 160 160" xmlns="http://www.w3.org/2000/svg" fill="#000">
  <path d=" M 8.09 24.99 C 10.27 24.08 12.55 23.18 14.97 23.34 C 55.96 23.37 96.96 23.34 137.95 23.35 C 142.64 23.46 147.61 22.67 151.93 24.98 C 130.13 46.81 108.35 68.66 86.58 90.53 C 84.68 92.29 82.95 94.98 80.01 94.78 C 77.10 95.00 75.38 92.35 73.50 90.60 C 51.71 68.71 29.91 46.84 8.09 24.99 Z" />
  <path d=" M 1.36 31.52 C 17.56 47.62 33.58 63.91 49.80 80.00 C 33.60 96.08 17.56 112.33 1.41 128.46 C 0.92 126.97 0.45 125.48 0.00 123.98 L 0.00 36.63 C 0.38 34.91 0.88 33.21 1.36 31.52 Z" />
  <path d=" M 110.20 80.00 C 126.42 63.92 142.45 47.64 158.63 31.52 C 159.10 33.17 159.60 34.81 160.00 36.48 L 160.00 123.32 C 159.62 125.06 159.12 126.76 158.64 128.48 C 142.44 112.37 126.43 96.08 110.20 80.00 Z" />
  <path d=" M 56.28 86.62 C 61.06 91.22 65.60 96.08 70.41 100.65 C 75.79 105.60 84.97 105.37 90.12 100.19 C 94.69 95.72 99.13 91.11 103.69 86.62 C 119.74 102.78 135.83 118.90 151.93 135.01 C 149.73 135.91 147.45 136.82 145.03 136.66 C 101.68 136.64 58.32 136.64 14.97 136.66 C 12.55 136.82 10.28 135.92 8.09 135.01 C 24.16 118.89 40.28 102.82 56.28 86.62 Z" />
</svg>
