<svg width="200px" height="200px" viewBox="0 0 200 200" xmlns="http://www.w3.org/2000/svg">
  <path fill="#a2e1fa" d=" M 37.62 0.00 L 48.48 0.00 C 52.61 1.68 56.78 3.79 59.53 7.43 C 65.90 15.11 65.81 27.55 58.84 34.83 C 54.68 39.57 48.30 42.22 42.02 42.00 C 35.75 41.41 29.54 38.30 25.92 33.03 C 22.18 27.61 20.68 20.37 23.11 14.10 C 25.25 7.32 31.17 2.49 37.62 0.00 Z" />
  <path fill="#a2e1fa" d=" M 8.98 58.95 C 8.64 51.45 15.51 44.79 22.94 45.00 C 36.64 45.03 50.33 44.98 64.03 45.03 C 70.80 45.14 77.30 50.96 77.02 57.94 C 76.98 78.64 77.00 99.34 77.01 120.04 C 77.48 124.85 71.06 129.04 67.01 125.92 C 63.98 124.52 63.70 120.94 63.78 118.02 C 63.80 100.71 63.72 83.40 63.83 66.08 C 63.42 66.09 62.59 66.09 62.17 66.10 C 62.30 106.73 62.18 147.36 62.25 188.00 C 62.21 190.55 62.30 193.15 61.72 195.66 C 60.71 197.41 59.16 198.73 57.62 200.00 L 48.46 200.00 C 46.72 198.24 44.34 196.54 44.06 193.90 C 43.77 171.08 44.34 148.23 43.78 125.41 C 42.05 126.29 42.63 128.45 42.47 129.99 C 42.48 150.57 42.60 171.15 42.41 191.72 C 42.58 195.21 40.53 198.16 37.69 200.00 L 28.49 200.00 C 26.52 198.09 23.93 196.03 24.02 193.00 C 23.96 150.66 24.03 108.32 24.00 65.98 L 22.98 66.00 C 22.98 83.02 22.93 100.04 23.01 117.06 C 23.22 120.42 22.34 124.44 19.04 126.07 C 14.81 128.96 9.09 124.63 9.04 119.98 C 8.95 99.64 9.07 79.30 8.98 58.95 Z" />
  <path fill="#ffe0b2" d=" M 136.62 0.00 L 148.17 0.00 C 155.24 2.77 161.44 8.43 162.91 16.14 C 163.20 20.39 163.61 24.91 161.84 28.92 C 158.89 36.12 151.67 41.18 144.00 42.01 C 135.98 42.59 127.60 38.36 123.79 31.18 C 121.15 26.26 119.94 20.24 121.88 14.86 C 123.87 7.78 129.89 2.51 136.62 0.00 Z" />
  <path fill="#ffe0b2" d=" M 112.84 55.85 C 115.10 49.18 122.09 44.94 128.96 44.98 C 137.32 45.00 145.67 45.04 154.03 44.97 C 161.60 44.22 169.16 49.03 171.79 56.12 C 177.74 72.58 183.51 89.11 189.41 105.59 C 190.62 108.61 190.39 112.50 187.45 114.43 C 184.10 117.72 177.97 115.52 176.87 111.15 C 172.22 98.74 167.71 86.28 163.15 73.83 C 162.77 72.53 161.89 71.48 161.06 70.44 C 160.84 71.08 160.39 72.36 160.17 73.00 C 165.85 92.22 171.69 111.39 177.43 130.59 C 177.86 131.93 177.90 133.35 177.95 134.75 C 171.98 135.24 165.98 134.91 160.00 135.00 C 159.99 154.35 160.01 173.70 160.00 193.04 C 160.36 196.17 157.48 198.07 155.54 200.00 L 148.56 200.00 C 146.54 198.11 143.98 196.02 144.02 192.98 C 143.96 173.66 144.03 154.32 143.99 134.99 C 143.22 135.00 141.68 135.00 140.90 135.00 C 140.86 153.35 140.89 171.69 140.89 190.03 C 140.93 193.99 139.30 198.13 135.61 200.00 L 129.39 200.00 C 125.51 198.33 123.85 194.03 123.98 190.05 C 124.03 171.70 124.01 153.35 124.00 135.00 C 118.27 134.99 112.55 135.03 106.82 134.96 C 106.85 133.10 106.86 131.22 107.42 129.43 C 112.90 111.51 118.19 93.54 123.65 75.62 C 124.16 73.98 124.05 72.25 124.06 70.56 C 121.56 72.21 120.92 75.26 119.90 77.87 C 115.90 88.88 111.87 99.87 107.80 110.85 C 106.75 113.95 103.52 116.44 100.18 116.01 C 97.94 115.19 94.82 113.78 94.99 110.95 C 94.88 108.55 94.82 106.06 95.74 103.80 C 101.51 87.84 107.08 71.81 112.84 55.85 Z" />
</svg>
