<svg width="160px" height="160px" viewBox="0 0 160 160" xmlns="http://www.w3.org/2000/svg" fill="#fff">
  <path d=" M 19.54 57.73 C 26.18 56.25 33.44 57.90 38.71 62.21 C 46.22 68.08 49.34 78.89 45.90 87.82 C 42.43 97.81 31.41 104.36 20.96 102.53 C 7.89 100.85 -2.00 86.02 2.62 73.43 C 4.94 65.67 11.61 59.45 19.54 57.73 Z" />
  <path d=" M 75.37 57.67 C 82.75 56.11 90.84 58.48 96.12 63.90 C 102.06 69.66 104.32 78.79 101.84 86.68 C 98.98 96.40 89.07 103.45 78.93 102.76 C 67.86 102.49 57.98 93.03 57.26 81.97 C 56.04 70.81 64.37 59.75 75.37 57.67 Z" />
  <path d=" M 130.47 57.75 C 136.65 56.36 143.40 57.63 148.58 61.33 C 154.14 65.09 157.55 71.47 158.48 78.02 C 159.44 89.20 151.11 100.35 140.01 102.35 C 131.13 104.24 121.37 100.19 116.47 92.55 C 112.03 86.03 111.44 77.14 114.97 70.09 C 117.92 63.91 123.79 59.26 130.47 57.75 Z" />
</svg>
