<svg width="500px" height="500px" viewBox="0 0 500 500" xmlns="http://www.w3.org/2000/svg">
  <path fill="#bfbdbc" d=" M 0.00 0.00 L 500.00 0.00 L 500.00 500.00 L 0.00 500.00 L 0.00 0.00 M 239.44 89.61 C 205.99 92.47 174.29 110.32 154.31 137.26 C 138.68 158.03 130.11 184.02 130.48 210.02 C 130.41 237.99 140.78 265.80 158.95 287.04 C 176.60 307.92 201.58 322.51 228.52 327.37 C 254.88 332.20 282.92 328.25 306.61 315.55 C 333.00 301.77 353.83 277.74 363.73 249.66 C 372.63 224.88 373.02 197.14 364.85 172.12 C 356.04 144.63 336.85 120.67 312.02 105.97 C 290.37 92.93 264.56 87.35 239.44 89.61 M 93.76 374.69 C 74.18 397.48 60.29 424.81 51.41 453.41 C 46.88 468.45 43.52 484.00 43.38 499.76 C 180.76 499.72 318.14 499.77 455.52 499.74 C 455.70 488.84 453.74 478.03 451.30 467.44 C 443.53 435.55 429.30 405.01 408.74 379.34 C 393.20 359.90 373.12 343.75 349.79 334.71 C 322.07 356.33 287.28 369.12 252.01 369.01 C 215.52 369.68 179.07 356.87 150.66 334.03 C 128.42 342.05 109.11 356.89 93.76 374.69 Z" />
  <path fill="#ffffff" d=" M 239.44 89.61 C 264.56 87.35 290.37 92.93 312.02 105.97 C 336.85 120.67 356.04 144.63 364.85 172.12 C 373.02 197.14 372.63 224.88 363.73 249.66 C 353.83 277.74 333.00 301.77 306.61 315.55 C 282.92 328.25 254.88 332.20 228.52 327.37 C 201.58 322.51 176.60 307.92 158.95 287.04 C 140.78 265.80 130.41 237.99 130.48 210.02 C 130.11 184.02 138.68 158.03 154.31 137.26 C 174.29 110.32 205.99 92.47 239.44 89.61 Z" />
  <path fill="#ffffff" d=" M 93.76 374.69 C 109.11 356.89 128.42 342.05 150.66 334.03 C 179.07 356.87 215.52 369.68 252.01 369.01 C 287.28 369.12 322.07 356.33 349.79 334.71 C 373.12 343.75 393.20 359.90 408.74 379.34 C 429.30 405.01 443.53 435.55 451.30 467.44 C 453.74 478.03 455.70 488.84 455.52 499.74 C 318.14 499.77 180.76 499.72 43.38 499.76 C 43.52 484.00 46.88 468.45 51.41 453.41 C 60.29 424.81 74.18 397.48 93.76 374.69 Z" />
</svg>
