<svg width="160px" height="160px" viewBox="0 0 160 160" xmlns="http://www.w3.org/2000/svg" fill="#000">
  <path d=" M 35.21 0.00 L 36.37 0.00 C 41.15 0.58 44.57 4.20 46.92 8.12 C 53.32 17.61 59.73 27.18 64.42 37.66 C 65.95 41.28 67.72 45.71 65.23 49.34 C 61.88 54.28 56.63 57.45 52.39 61.55 C 57.34 75.45 66.15 88.06 78.10 96.82 C 84.26 101.50 91.26 104.94 98.49 107.63 C 102.59 103.42 105.72 98.17 110.65 94.84 C 114.79 92.08 119.73 94.42 123.77 96.16 C 134.56 101.26 144.52 107.95 154.28 114.78 C 157.30 116.73 159.28 119.89 160.00 123.39 L 160.00 125.20 C 156.96 132.79 150.37 138.10 144.54 143.53 C 137.08 149.73 129.51 156.20 120.49 160.00 L 118.70 160.00 C 106.84 158.65 95.51 154.38 84.95 148.96 C 69.22 140.79 55.12 129.73 42.51 117.33 C 30.17 104.75 19.16 90.70 11.02 75.02 C 5.61 64.52 1.40 53.23 0.00 41.44 L 0.00 39.45 C 1.80 34.75 4.74 30.63 7.63 26.56 C 12.79 19.53 18.42 12.80 24.76 6.80 C 27.85 4.01 31.08 1.08 35.21 0.00 Z" />
</svg>
