<svg width="160px" height="160px" viewBox="0 0 160 160" xmlns="http://www.w3.org/2000/svg" fill="#6b7280">
  <path d=" M 64.44 0.00 L 70.04 0.00 C 85.33 0.69 100.31 6.90 111.44 17.43 C 124.23 29.29 131.93 46.52 131.90 63.99 C 132.20 79.25 126.64 94.48 116.79 106.12 C 128.39 118.22 140.07 130.25 151.65 142.39 C 153.80 144.67 156.44 146.80 157.26 149.99 C 158.22 154.67 154.38 159.44 149.73 160.00 L 148.28 160.00 C 146.16 159.79 144.13 158.90 142.67 157.33 C 129.87 144.04 117.12 130.71 104.29 117.47 C 89.17 128.46 69.01 131.89 51.00 127.08 C 34.41 122.81 19.81 111.54 11.33 96.67 C 5.91 87.37 3.11 76.68 2.61 65.97 C 2.46 48.79 9.14 31.53 21.34 19.35 C 32.58 7.74 48.33 0.83 64.44 0.00 M 58.47 17.68 C 39.54 21.05 23.69 36.96 20.41 55.91 C 17.19 72.27 23.51 90.00 36.22 100.76 C 46.45 109.65 60.60 113.88 74.02 111.88 C 85.22 110.36 95.76 104.61 103.18 96.10 C 112.34 85.86 116.68 71.48 114.62 57.89 C 112.85 44.63 105.06 32.41 93.98 24.98 C 83.72 17.99 70.66 15.30 58.47 17.68 Z" />
</svg>
