<svg aria-hidden="true" style="position:absolute;width:0;height:0;overflow:hidden" xmlns="http://www.w3.org/2000/svg" xmlns:xlink="http://www.w3.org/1999/xlink">
  <defs>
    <symbol id="announcement" viewBox="0 0 160 160">
      <path d=" M 58.12 48.78 C 82.96 35.92 107.97 23.36 132.82 10.54 C 133.67 10.54 135.36 10.52 136.20 10.52 C 140.52 12.51 145.18 15.62 145.31 20.97 C 145.47 55.99 145.30 91.01 145.39 126.03 C 145.46 128.59 145.07 131.27 143.57 133.42 C 140.61 138.14 133.82 139.21 129.03 136.87 C 105.43 124.76 81.87 112.56 58.22 100.53 C 58.17 83.28 58.37 66.03 58.12 48.78 Z" />
      <path d=" M 0.16 61.94 C -0.13 56.11 5.10 50.92 10.87 50.95 C 24.20 50.82 37.54 50.95 50.87 50.89 C 50.95 66.66 50.84 82.42 50.93 98.19 C 37.60 98.17 24.27 98.23 10.94 98.16 C 5.41 98.22 0.26 93.48 0.19 87.89 C 0.10 79.24 0.17 70.59 0.16 61.94 Z" />
      <path d=" M 152.63 62.23 C 157.16 64.29 160.42 68.90 159.89 74.00 C 160.62 79.40 157.67 84.74 152.62 86.85 C 152.62 78.64 152.60 70.44 152.63 62.23 Z" />
      <path d=" M 23.54 105.42 C 33.34 105.43 43.14 105.42 52.94 105.43 C 55.77 115.42 58.69 125.39 61.44 135.40 C 63.46 143.25 55.48 150.38 47.95 149.60 C 42.19 150.28 35.63 147.11 33.87 141.31 C 30.35 129.37 27.12 117.34 23.54 105.42 Z" />
    </symbol>
    <symbol id="assignment" viewBox="0 0 160 160">
      <path d=" M 57.28 16.24 C 60.89 6.66 70.62 -0.38 81.00 0.28 C 90.71 0.47 99.32 7.32 102.72 16.24 C 110.44 16.32 118.16 16.04 125.87 16.35 C 135.70 17.04 143.93 26.12 143.77 35.96 C 143.76 70.95 143.84 105.93 143.72 140.92 C 143.49 151.34 134.00 159.77 123.78 160.00 L 37.70 160.00 C 33.94 159.64 30.00 159.30 26.68 157.34 C 20.40 154.04 16.21 147.16 16.24 140.05 C 16.21 107.37 16.25 74.68 16.22 42.00 C 16.22 37.32 15.84 32.39 17.93 28.04 C 20.95 21.03 28.31 16.17 35.95 16.24 C 43.06 16.17 50.17 16.26 57.28 16.24 M 54.29 48.31 C 50.15 49.12 47.30 53.65 48.29 57.75 C 49.01 61.69 53.05 64.41 56.97 64.10 C 72.32 64.10 87.67 64.11 103.02 64.10 C 107.57 64.53 112.13 60.69 111.88 56.00 C 112.03 51.39 107.54 47.56 103.02 48.12 C 86.78 48.29 70.52 47.90 54.29 48.31 M 54.17 80.23 C 49.52 81.24 46.76 86.78 48.73 91.11 C 49.96 93.88 52.82 96.00 55.91 95.88 C 71.96 95.92 88.01 95.91 104.05 95.89 C 108.60 96.07 112.52 91.56 111.84 87.09 C 111.54 82.80 107.28 79.61 103.10 79.96 C 86.79 80.13 70.45 79.64 54.17 80.23 M 86.22 112.08 C 83.04 112.80 80.45 115.62 80.06 118.87 C 79.35 123.40 83.31 128.01 87.93 127.81 C 93.29 127.85 98.66 127.86 104.02 127.80 C 108.58 127.99 112.51 123.47 111.83 118.99 C 111.54 114.69 107.23 111.47 103.03 111.84 C 97.43 111.98 91.80 111.55 86.22 112.08 Z" />
    </symbol>
    <symbol id="attendance" viewBox="0 0 160 160">
      <path d=" M 48.38 22.17 C 50.19 16.22 57.99 13.36 63.17 16.85 C 67.46 19.27 68.59 24.65 67.59 29.17 C 67.57 33.01 65.12 36.08 62.40 38.52 C 67.00 45.42 78.90 43.84 81.49 52.77 C 82.53 50.56 83.64 48.13 85.97 47.03 C 90.44 44.74 95.15 42.95 99.69 40.80 C 99.91 40.18 100.34 38.95 100.56 38.34 C 95.62 34.95 94.59 28.59 95.34 23.04 C 96.57 16.94 104.19 13.37 109.65 16.44 C 114.32 18.64 115.99 24.34 114.80 29.11 C 114.75 32.80 112.58 35.89 109.85 38.18 C 110.19 39.07 110.52 39.95 110.85 40.84 C 115.83 43.28 121.24 44.96 125.83 48.11 C 130.22 51.90 128.22 58.24 128.76 63.28 C 121.63 63.13 114.36 66.48 110.77 72.81 C 106.88 79.01 108.02 86.71 109.76 93.42 C 107.72 94.34 105.69 95.27 103.67 96.23 C 101.61 95.26 99.56 94.29 97.49 93.35 C 98.79 87.73 100.04 81.66 97.97 76.07 C 95.39 68.66 87.88 63.33 80.02 63.42 C 72.18 63.31 64.69 68.61 62.07 75.97 C 59.93 81.61 61.21 87.76 62.54 93.44 C 60.49 94.35 58.46 95.29 56.44 96.23 C 54.39 95.25 52.33 94.28 50.27 93.33 C 51.97 86.66 53.10 78.99 49.24 72.83 C 46.17 67.36 40.26 64.26 34.23 63.28 C 34.74 58.61 33.07 53.19 36.16 49.16 C 40.90 44.02 49.49 44.46 53.66 38.72 C 48.50 35.01 46.94 28.10 48.38 22.17 Z" />
      <path d=" M 26.63 74.63 C 31.80 70.23 40.55 73.06 42.38 79.52 C 43.58 85.31 42.27 91.97 37.33 95.71 C 41.81 102.67 54.25 100.89 56.21 110.17 C 58.92 101.10 70.85 102.63 75.77 95.86 C 70.50 92.18 69.20 85.27 70.49 79.33 C 72.15 74.03 78.69 70.92 83.80 73.26 C 88.46 75.01 90.81 80.35 89.81 85.09 C 89.95 89.36 87.65 93.01 84.51 95.70 C 89.22 102.60 101.18 101.08 103.78 110.15 C 104.55 108.01 105.38 105.65 107.53 104.53 C 112.16 102.00 117.14 100.19 121.90 97.93 C 122.08 97.32 122.45 96.10 122.63 95.48 C 117.70 92.10 116.68 85.69 117.45 80.16 C 118.75 74.18 126.12 70.56 131.59 73.52 C 136.25 75.64 138.11 81.26 136.95 86.03 C 136.92 89.83 134.74 93.01 131.92 95.35 C 132.27 96.23 132.62 97.11 132.97 98.00 C 137.31 100.00 141.74 101.81 146.00 103.97 C 148.66 105.26 150.62 107.96 150.71 110.95 C 150.90 115.15 150.70 119.36 150.84 123.56 C 103.61 123.58 56.39 123.58 9.16 123.56 C 9.61 118.42 8.40 113.03 9.99 108.06 C 13.85 101.03 24.03 102.13 28.61 95.92 C 26.94 94.10 24.82 92.52 23.91 90.14 C 22.35 85.00 21.75 78.22 26.63 74.63 Z" />
      <path d=" M 0.00 132.90 C 53.33 132.90 106.67 132.91 160.00 132.90 L 160.00 144.64 C 106.67 144.67 53.33 144.65 0.00 144.65 L 0.00 132.90 Z" />
    </symbol>
    <symbol id="calendar" viewBox="0 0 160 160">
      <path d=" M 10.39 5.61 C 16.21 4.99 22.09 5.48 27.93 5.36 C 28.03 10.89 27.40 16.48 28.18 21.97 C 29.61 26.30 36.44 26.19 37.62 21.76 C 38.13 16.36 37.71 10.90 37.73 5.48 C 64.32 5.16 90.93 5.43 117.53 5.34 C 117.67 10.85 117.12 16.39 117.75 21.87 C 119.03 26.26 125.95 26.27 127.21 21.86 C 127.85 16.38 127.29 10.84 127.43 5.34 C 133.26 5.47 139.11 5.05 144.92 5.56 C 152.03 6.66 159.09 12.48 159.30 20.06 C 159.44 26.12 159.27 32.17 159.34 38.23 C 106.22 38.22 53.11 38.23 0.00 38.22 L 0.00 18.13 C 0.81 12.49 4.47 6.74 10.39 5.61 Z" />
      <path d=" M 0.00 48.64 C 53.33 48.63 106.67 48.62 160.00 48.65 L 160.00 140.52 C 158.79 148.99 150.37 154.94 142.09 154.67 C 99.02 154.62 55.95 154.72 12.88 154.62 C 6.02 154.77 0.82 148.69 0.00 142.23 L 0.00 48.64 M 30.32 67.63 C 29.14 68.33 28.38 69.66 28.42 71.04 C 28.38 75.34 28.32 79.65 28.45 83.96 C 28.49 86.25 30.91 87.69 33.02 87.46 C 36.98 87.48 40.96 87.59 44.92 87.39 C 47.07 87.32 48.81 85.24 48.75 83.13 C 48.83 79.05 48.82 74.96 48.76 70.88 C 48.85 68.45 46.33 66.76 44.06 67.11 C 39.51 67.36 34.72 66.49 30.32 67.63 M 70.25 67.33 C 68.76 67.86 67.64 69.39 67.74 71.00 C 67.69 75.33 67.60 79.67 67.79 83.99 C 67.86 86.09 70.07 87.63 72.07 87.45 C 76.04 87.52 80.02 87.52 83.99 87.45 C 85.97 87.65 88.10 86.11 88.10 84.04 C 88.26 79.71 88.20 75.37 88.13 71.04 C 88.25 68.87 86.27 66.95 84.11 67.14 C 79.49 67.16 74.84 66.85 70.25 67.33 M 109.43 67.63 C 106.37 69.72 107.88 73.92 107.54 77.02 C 107.93 80.39 106.11 85.44 110.07 87.20 C 114.66 87.80 119.33 87.40 123.94 87.44 C 125.87 87.65 127.89 86.07 127.86 84.09 C 127.98 79.69 127.93 75.28 127.89 70.88 C 128.03 68.32 125.32 66.71 123.00 67.10 C 118.50 67.36 113.79 66.50 109.43 67.63 M 30.34 112.42 C 27.13 114.50 28.78 118.86 28.39 122.01 C 28.75 125.35 26.98 130.38 31.02 132.06 C 35.34 132.55 39.72 132.24 44.06 132.26 C 46.50 132.53 48.78 130.42 48.76 127.99 C 48.72 123.47 49.05 118.91 48.57 114.42 C 47.47 111.28 43.65 111.83 41.02 111.81 C 37.49 112.10 33.73 111.18 30.34 112.42 M 70.13 112.19 C 68.60 112.80 67.60 114.41 67.73 116.06 C 67.67 120.04 67.67 124.02 67.72 128.00 C 67.47 130.36 69.66 132.49 72.00 132.26 C 76.36 132.28 80.74 132.43 85.09 132.17 C 87.07 131.98 88.37 129.85 88.15 127.97 C 88.15 123.66 88.32 119.33 88.05 115.03 C 87.72 112.71 85.20 111.61 83.08 111.83 C 78.78 111.99 74.37 111.40 70.13 112.19 M 110.02 112.15 C 108.47 112.74 107.44 114.40 107.55 116.06 C 107.51 120.04 107.51 124.03 107.55 128.02 C 107.32 130.45 109.60 132.54 111.99 132.27 C 116.33 132.28 120.68 132.44 125.02 132.16 C 126.99 131.89 128.15 129.88 127.91 128.00 C 127.89 123.66 128.05 119.31 127.82 114.98 C 127.57 112.72 125.06 111.63 123.02 111.83 C 118.70 111.98 114.30 111.43 110.02 112.15 Z" />
    </symbol>
    <symbol id="chat" viewBox="0 0 160 160">
      <path d=" M 72.04 4.34 C 77.61 3.20 83.36 3.40 88.92 4.48 C 109.78 6.47 130.01 16.34 143.61 32.41 C 153.77 44.26 159.85 59.61 160.00 75.26 L 160.00 76.72 C 159.85 92.12 153.98 107.25 144.10 119.01 C 132.93 132.49 117.05 141.75 100.06 145.69 C 82.61 149.72 63.95 148.38 47.29 141.75 C 34.50 148.86 20.22 152.87 5.90 155.49 C 4.83 155.76 3.79 156.13 2.79 156.60 C 1.86 155.86 0.93 155.11 0.00 154.36 L 0.00 152.56 C 9.17 142.33 11.21 128.12 12.76 114.99 C 4.77 103.87 0.16 90.38 0.00 76.67 L 0.00 75.28 C 0.13 56.97 8.50 39.21 21.75 26.73 C 35.26 13.72 53.44 6.04 72.04 4.34 M 38.20 66.35 C 34.55 68.06 31.91 71.94 32.06 76.03 C 31.84 82.13 37.82 87.45 43.86 86.59 C 50.13 86.02 54.88 79.19 52.93 73.13 C 51.40 67.02 43.84 63.47 38.20 66.35 M 75.34 66.43 C 68.09 69.58 67.32 80.74 74.08 84.85 C 80.30 89.45 90.10 84.77 90.60 77.11 C 91.78 69.20 82.40 62.54 75.34 66.43 M 113.13 66.24 C 108.26 68.20 105.44 74.13 107.16 79.12 C 108.56 84.03 113.88 87.37 118.91 86.53 C 124.34 85.81 128.65 80.37 127.90 74.89 C 127.44 68.05 119.35 63.19 113.13 66.24 Z" />
    </symbol>
    <symbol id="class" viewBox="0 0 160 160">
      <path d=" M 22.43 0.00 L 24.55 0.00 C 28.21 0.34 31.76 2.13 33.88 5.17 C 38.36 10.98 36.17 20.28 29.62 23.54 C 23.06 27.28 13.88 23.49 11.82 16.24 C 9.29 8.99 14.88 0.75 22.43 0.00 Z" />
      <path d=" M 78.53 0.00 L 80.66 0.00 C 85.53 0.27 90.07 3.54 91.71 8.16 C 94.26 14.37 90.60 22.04 84.33 24.24 C 77.74 26.83 69.67 22.70 67.96 15.83 C 65.71 8.71 71.23 0.86 78.53 0.00 Z" />
      <path d=" M 135.29 0.00 L 137.41 0.00 C 141.28 0.49 144.92 2.65 146.93 6.03 C 150.63 11.77 148.40 20.16 142.40 23.37 C 135.93 27.31 126.55 23.73 124.41 16.46 C 121.59 9.09 127.49 0.43 135.29 0.00 Z" />
      <path d=" M 12.17 31.05 C 19.08 35.45 28.39 35.50 35.30 31.05 C 42.48 35.30 47.18 43.21 47.31 51.59 C 31.64 51.57 15.97 51.48 0.30 51.63 C 0.20 43.24 5.04 35.32 12.17 31.05 Z" />
      <path d=" M 68.39 31.05 C 75.36 35.47 84.67 35.45 91.64 31.05 C 98.74 35.39 103.40 43.19 103.59 51.54 C 87.87 51.57 72.14 51.57 56.41 51.54 C 56.59 43.19 61.26 35.36 68.39 31.05 Z" />
      <path d=" M 112.69 51.59 C 112.82 43.21 117.52 35.26 124.75 31.06 C 131.63 35.52 140.94 35.43 147.84 31.05 C 154.98 35.32 159.75 43.23 159.74 51.61 C 144.06 51.51 128.37 51.55 112.69 51.59 Z" />
      <path d=" M 0.00 60.91 C 51.66 60.87 103.32 60.93 154.97 60.89 C 156.65 60.92 158.33 61.07 160.00 61.22 L 160.00 92.18 C 159.56 92.67 158.67 93.65 158.23 94.14 C 158.25 88.14 156.70 81.94 152.46 77.50 C 146.02 70.14 134.45 68.11 125.91 72.91 C 118.35 76.86 113.88 85.38 114.28 93.82 C 110.16 93.71 106.04 93.70 101.93 93.77 C 102.27 86.27 98.89 78.64 92.64 74.34 C 85.34 68.99 74.68 68.97 67.37 74.33 C 61.11 78.62 57.72 86.26 58.07 93.77 C 53.96 93.70 49.84 93.71 45.72 93.82 C 45.91 87.10 43.40 80.23 38.21 75.80 C 30.80 68.96 18.56 68.46 10.63 74.70 C 4.44 79.10 1.61 86.77 1.71 94.18 C 1.28 93.70 0.43 92.75 0.00 92.28 L 0.00 60.91 Z" />
      <path d=" M 19.34 80.49 C 25.93 77.70 34.13 82.04 35.80 88.92 C 38.05 96.00 32.43 104.04 25.09 104.62 C 18.67 105.47 12.25 100.49 11.40 94.09 C 10.40 88.42 13.94 82.43 19.34 80.49 Z" />
      <path d=" M 76.25 80.25 C 82.79 77.93 90.52 82.36 92.09 89.05 C 94.05 95.68 89.32 103.16 82.58 104.43 C 76.15 105.95 69.16 101.44 67.82 95.00 C 66.21 88.85 70.22 82.07 76.25 80.25 Z" />
      <path d=" M 131.43 80.66 C 138.39 77.38 147.31 82.31 148.52 89.82 C 150.01 96.55 144.89 103.72 138.07 104.56 C 131.84 105.64 125.41 101.16 124.08 95.03 C 122.55 89.28 125.97 82.87 131.43 80.66 Z" />
      <path d=" M 0.24 131.28 C 0.28 122.92 4.99 115.05 12.11 110.77 C 19.05 115.03 28.34 115.26 35.22 110.75 C 42.53 114.87 47.13 122.92 47.31 131.27 C 31.62 131.27 15.93 131.25 0.24 131.28 Z" />
      <path d=" M 56.47 131.29 C 56.54 122.94 61.22 115.10 68.30 110.78 C 75.40 115.13 84.63 115.07 91.75 110.78 C 98.78 115.15 103.46 122.94 103.53 131.29 C 87.84 131.25 72.16 131.25 56.47 131.29 Z" />
      <path d=" M 112.69 131.27 C 112.85 122.92 117.47 114.87 124.79 110.76 C 131.67 115.25 140.95 115.04 147.89 110.77 C 155.01 115.05 159.71 122.92 159.77 131.28 C 144.07 131.25 128.38 131.26 112.69 131.27 Z" />
      <path d=" M 0.34 140.59 C 53.45 140.64 106.55 140.64 159.66 140.59 C 159.57 145.71 159.89 150.85 159.56 155.97 C 159.62 157.97 157.73 158.99 156.34 160.00 L 3.81 160.00 C 2.32 159.07 0.39 158.02 0.44 155.97 C 0.11 150.85 0.43 145.71 0.34 140.59 Z" />
    </symbol>
    <symbol id="exam" viewBox="0 0 160 160">
      <path d=" M 15.40 0.00 L 86.69 0.00 C 87.22 7.67 86.54 15.37 87.02 23.04 C 87.72 32.81 96.27 41.28 106.06 41.80 C 113.56 42.00 121.06 41.81 128.56 41.87 C 128.57 49.39 128.53 56.91 128.59 64.43 C 113.77 79.32 98.90 94.16 84.04 109.01 C 82.06 111.09 79.49 112.87 78.63 115.75 C 74.80 127.58 70.81 139.37 67.00 151.21 C 65.56 154.18 69.24 157.08 72.01 155.67 C 82.80 152.79 93.72 150.28 104.42 147.12 C 112.83 139.56 120.46 131.10 128.65 123.27 C 128.41 131.17 128.72 139.09 128.49 146.99 C 128.15 154.37 121.16 160.00 113.97 160.00 L 16.25 160.00 C 12.23 159.80 7.88 159.11 4.89 156.17 C 1.56 153.37 0.25 148.99 0.00 144.78 L 0.00 16.63 C 0.23 12.71 0.66 8.43 3.42 5.39 C 6.24 1.71 10.93 0.23 15.40 0.00 M 12.34 18.14 C 10.15 19.25 10.74 21.97 10.63 23.97 C 10.75 30.00 10.54 36.04 10.71 42.07 C 10.63 44.22 12.98 45.58 14.91 45.33 C 21.28 45.35 27.66 45.33 34.03 45.34 C 36.04 45.60 38.55 44.25 38.37 41.95 C 38.46 34.99 38.44 28.01 38.38 21.05 C 38.57 19.19 36.78 17.60 35.01 17.63 C 29.01 17.48 23.02 17.66 17.03 17.56 C 15.48 17.72 13.71 17.23 12.34 18.14 M 47.39 21.37 C 44.31 22.44 44.83 27.47 48.08 27.82 C 58.73 28.05 69.40 27.90 80.06 27.89 C 82.39 28.05 84.42 25.16 83.15 23.08 C 82.10 20.62 79.14 21.13 76.99 21.08 C 67.13 21.32 57.21 20.74 47.39 21.37 M 47.37 35.27 C 44.20 36.36 44.96 41.42 48.22 41.73 C 55.45 41.92 62.70 41.86 69.93 41.76 C 72.40 41.77 74.20 38.40 72.48 36.47 C 70.78 34.09 67.44 35.08 64.96 34.86 C 59.12 35.17 53.12 34.32 47.37 35.27 M 12.38 56.31 C 10.21 57.39 10.72 60.05 10.63 62.03 C 10.73 68.03 10.57 74.02 10.69 80.02 C 10.51 81.90 12.27 83.53 14.09 83.48 C 21.01 83.56 27.93 83.55 34.85 83.49 C 36.74 83.62 38.53 81.93 38.39 80.01 C 38.41 72.99 38.49 65.97 38.36 58.96 C 38.43 57.21 36.67 55.83 35.04 55.81 C 29.03 55.66 23.01 55.83 17.00 55.74 C 15.48 55.90 13.72 55.40 12.38 56.31 M 48.22 59.33 C 44.52 59.69 44.37 65.52 48.08 66.07 C 57.71 66.39 67.38 66.07 77.02 66.22 C 79.05 66.18 81.49 66.55 82.89 64.70 C 84.60 62.55 82.66 59.10 79.99 59.28 C 69.41 59.25 58.81 59.15 48.22 59.33 M 47.36 73.39 C 44.36 74.55 44.83 79.37 48.03 79.86 C 55.05 80.33 62.11 79.94 69.15 80.00 C 71.94 80.40 74.45 76.82 72.43 74.55 C 70.97 72.43 68.09 73.31 65.94 73.10 C 59.75 73.33 53.51 72.74 47.36 73.39 M 12.34 94.49 C 10.72 95.37 10.57 97.33 10.63 98.98 C 10.71 105.32 10.60 111.66 10.68 118.00 C 10.49 119.88 12.15 121.71 14.05 121.62 C 21.00 121.69 27.96 121.69 34.92 121.62 C 36.86 121.78 38.56 119.91 38.40 118.00 C 38.43 111.32 38.42 104.63 38.41 97.94 C 38.66 95.97 37.10 94.04 35.09 94.01 C 29.40 93.75 23.70 94.03 18.01 93.89 C 16.13 93.98 14.09 93.64 12.34 94.49 M 48.32 97.51 C 44.63 97.76 44.30 103.57 47.97 104.24 C 58.63 104.50 69.31 104.34 79.98 104.32 C 82.58 104.47 84.55 101.28 83.00 99.07 C 81.74 97.01 79.13 97.47 77.09 97.41 C 67.50 97.53 57.91 97.30 48.32 97.51 M 47.44 111.50 C 44.34 112.67 44.74 117.63 48.11 118.08 C 55.10 118.32 62.11 118.13 69.10 118.17 C 71.60 118.51 74.10 115.63 72.77 113.29 C 71.61 110.62 68.33 111.37 66.03 111.25 C 59.84 111.46 53.60 110.93 47.44 111.50 Z" />
      <path d=" M 93.75 0.17 C 105.37 11.84 117.08 23.43 128.66 35.14 C 121.45 34.66 114.22 35.08 107.00 34.88 C 100.20 34.80 94.22 28.82 93.90 22.07 C 93.68 14.77 93.97 7.47 93.75 0.17 Z" />
      <path d=" M 17.58 24.54 C 22.23 24.54 26.89 24.53 31.54 24.55 C 31.46 29.17 31.46 33.79 31.53 38.41 C 26.88 38.42 22.23 38.41 17.58 38.42 C 17.63 33.79 17.64 29.16 17.58 24.54 Z" />
      <path d=" M 17.59 62.67 C 22.23 62.69 26.88 62.69 31.52 62.67 C 31.47 67.30 31.46 71.93 31.54 76.55 C 26.88 76.56 22.23 76.57 17.57 76.55 C 17.64 71.92 17.63 67.30 17.59 62.67 Z" />
      <path d=" M 131.10 71.78 C 134.79 68.09 138.35 63.41 143.94 62.82 C 152.44 61.34 160.85 69.36 159.64 77.94 C 159.31 83.73 154.48 87.41 150.80 91.26 C 144.16 84.84 137.81 78.12 131.10 71.78 Z" />
      <path d=" M 86.97 115.85 C 100.07 102.77 113.18 89.69 126.24 76.56 C 132.85 83.04 139.27 89.70 145.95 96.11 C 132.83 109.18 119.73 122.28 106.66 135.40 C 100.09 128.89 93.62 122.28 86.97 115.85 Z" />
      <path d=" M 17.61 100.82 C 22.24 100.84 26.86 100.84 31.49 100.82 C 31.49 105.43 31.45 110.05 31.55 114.67 C 26.89 114.75 22.23 114.73 17.57 114.68 C 17.64 110.06 17.62 105.44 17.61 100.82 Z" />
      <path d=" M 82.08 120.73 C 88.78 127.13 95.13 133.89 101.87 140.24 C 92.80 142.73 83.72 145.18 74.68 147.73 C 77.23 138.76 79.75 129.77 82.08 120.73 Z" />
    </symbol>
    <symbol id="home" viewBox="0 0 160 160">
      <path d=" M 79.04 0.00 L 80.63 0.00 C 84.34 0.24 87.92 1.77 90.52 4.45 C 112.06 25.95 133.55 47.49 155.09 68.99 C 157.87 71.59 159.60 75.13 160.00 78.91 L 160.00 80.78 C 159.71 89.47 151.20 95.80 142.81 94.80 C 142.81 110.90 142.86 127.00 142.80 143.10 C 142.90 151.87 135.30 159.59 126.60 160.00 L 99.37 160.00 C 97.13 159.40 95.18 157.53 95.41 155.08 C 95.34 142.72 95.45 130.36 95.39 118.00 C 95.60 114.24 92.78 110.54 89.02 109.98 C 84.69 109.46 80.32 109.90 75.98 109.73 C 72.90 109.71 69.34 109.57 67.02 111.97 C 65.40 113.50 64.53 115.69 64.60 117.91 C 64.53 130.30 64.65 142.69 64.57 155.08 C 64.81 157.47 62.96 159.17 60.92 160.00 L 33.70 160.00 C 24.90 159.79 17.10 152.00 17.19 143.15 C 17.13 127.04 17.19 110.92 17.18 94.80 C 8.93 95.76 0.55 89.69 0.00 81.17 L 0.00 79.26 C 0.22 75.34 2.04 71.67 4.89 69.00 C 26.43 47.50 47.93 25.95 69.47 4.45 C 71.99 1.84 75.45 0.36 79.04 0.00 Z" />
    </symbol>
    <symbol id="lesson" viewBox="0 0 160 160">
      <path d=" M 75.46 16.59 C 79.20 15.76 83.15 16.55 86.37 18.60 C 109.13 31.86 131.95 45.03 154.68 58.33 C 157.05 59.43 157.69 62.96 155.78 64.75 C 153.72 66.44 151.28 67.58 149.00 68.95 C 128.76 80.72 108.50 92.46 88.28 104.26 C 83.68 107.54 77.32 109.05 72.17 106.09 C 49.27 92.90 26.47 79.52 3.59 66.31 C 2.01 65.37 0.08 64.11 0.26 62.00 C 0.04 59.86 1.98 58.56 3.60 57.63 C 24.72 45.39 45.82 33.11 66.94 20.85 C 69.70 19.30 72.34 17.37 75.46 16.59 Z" />
      <path d=" M 145.70 80.71 C 149.16 78.66 152.65 76.63 156.12 74.58 C 156.01 89.00 156.10 103.41 156.07 117.82 C 157.74 119.60 159.28 121.55 160.00 123.92 L 160.00 126.92 C 159.20 131.16 155.45 134.74 151.04 134.72 C 145.55 135.02 140.71 129.44 141.85 124.03 C 142.17 121.47 144.09 119.64 145.73 117.83 C 145.71 105.46 145.77 93.08 145.70 80.71 Z" />
      <path d=" M 25.86 89.10 C 37.77 95.85 49.55 102.84 61.41 109.68 C 65.44 111.94 69.31 114.76 73.94 115.66 C 79.62 117.01 85.68 115.67 90.62 112.68 C 104.17 104.79 117.74 96.95 131.27 89.03 C 131.15 96.34 131.31 103.66 131.20 110.97 C 131.11 115.60 128.30 119.94 124.31 122.21 C 114.54 127.83 104.80 133.49 95.01 139.08 C 84.94 144.78 72.06 144.71 62.01 139.01 C 52.25 133.43 42.54 127.78 32.81 122.16 C 28.80 119.96 26.09 115.63 25.97 111.05 C 25.78 103.74 26.01 96.41 25.86 89.10 Z" />
    </symbol>
    <symbol id="logout" viewBox="0 0 160 160">
      <path d=" M 60.73 2.62 C 68.94 0.61 77.88 7.50 77.86 15.98 C 77.95 58.32 77.87 100.66 77.90 143.00 C 78.49 151.85 69.36 159.51 60.75 157.38 C 44.14 153.31 27.55 149.13 10.96 144.95 C 5.10 143.67 0.73 138.38 0.00 132.51 L 0.00 27.64 C 0.64 21.71 5.06 16.34 10.96 15.04 C 27.54 10.87 44.13 6.70 60.73 2.62 Z" />
      <path d=" M 88.85 8.24 C 99.59 8.23 110.33 8.22 121.07 8.24 C 127.43 8.11 133.39 12.85 134.93 18.98 C 135.77 22.91 135.30 26.98 135.37 30.97 C 135.48 35.78 128.98 38.82 125.42 35.54 C 121.58 32.48 123.64 27.10 123.11 22.93 C 123.39 21.17 121.49 20.19 119.98 20.50 C 110.06 20.51 100.13 20.53 90.21 20.50 C 90.48 16.37 90.17 12.19 88.85 8.24 Z" />
      <path d=" M 124.54 51.42 C 126.74 48.58 131.37 48.59 133.73 51.22 C 141.48 58.82 149.06 66.59 156.80 74.20 C 158.11 75.47 159.23 76.94 160.00 78.61 L 160.00 81.14 C 159.42 82.71 158.50 84.12 157.30 85.28 C 149.60 92.94 141.94 100.63 134.26 108.30 C 132.70 109.94 130.48 111.19 128.15 110.67 C 123.63 110.12 121.41 103.90 124.60 100.63 C 129.24 95.67 134.26 91.07 138.94 86.14 C 124.95 86.22 110.96 86.18 96.97 86.18 C 94.08 86.38 91.28 84.39 90.45 81.63 C 89.20 77.68 92.91 73.44 96.95 73.82 C 110.95 73.82 124.95 73.78 138.94 73.86 C 134.40 69.11 129.62 64.61 125.05 59.89 C 122.69 57.77 122.41 53.79 124.54 51.42 Z" />
      <path d=" M 123.10 129.96 C 122.31 124.98 128.64 121.05 132.68 124.18 C 136.91 127.07 134.97 132.78 135.39 137.05 C 135.76 144.79 128.86 151.96 121.09 151.76 C 110.35 151.78 99.61 151.77 88.86 151.76 C 90.16 147.80 90.48 143.63 90.22 139.49 C 100.79 139.36 111.39 139.75 121.94 139.31 C 124.35 136.95 122.58 132.99 123.10 129.96 Z" />
    </symbol>
    <symbol id="parent" viewBox="0 0 160 160">
      <path d=" M 42.45 15.78 C 48.58 13.14 55.37 15.06 61.03 17.93 C 69.45 22.55 74.67 32.38 73.49 41.96 C 72.44 54.05 61.23 64.18 49.07 63.81 C 37.32 64.09 26.46 54.63 24.89 43.03 C 22.82 31.21 30.89 18.83 42.45 15.78 Z" />
      <path d=" M 117.40 45.62 C 123.76 43.42 131.18 45.33 135.86 50.11 C 141.46 55.64 142.79 64.92 138.74 71.72 C 134.36 79.84 123.38 83.33 115.14 79.10 C 107.15 75.39 102.77 65.38 105.87 57.05 C 107.62 51.69 112.06 47.36 117.40 45.62 Z" />
      <path d=" M 0.00 99.47 C 0.99 85.15 13.63 72.76 28.07 72.57 C 42.04 72.49 56.02 72.49 69.99 72.57 C 79.58 72.72 88.48 78.14 93.80 85.98 C 85.74 89.23 79.83 97.26 79.71 106.04 C 79.60 119.19 79.69 132.36 79.68 145.52 C 53.12 145.50 26.56 145.52 0.00 145.50 L 0.00 99.47 Z" />
      <path d=" M 86.05 105.94 C 86.24 98.05 93.14 91.15 101.01 90.88 C 114.34 90.68 127.67 90.91 141.00 90.78 C 144.51 90.74 148.19 90.87 151.34 92.61 C 156.22 94.99 159.40 100.05 160.00 105.38 L 160.00 145.49 C 135.31 145.52 110.63 145.52 85.94 145.49 C 86.08 132.31 85.74 119.12 86.05 105.94 Z" />
    </symbol>
    <symbol id="profile" viewBox="0 0 160 160">
      <path d=" M 78.61 0.00 L 80.40 0.00 C 95.77 0.06 111.09 4.62 123.92 13.10 C 137.85 22.21 148.78 35.80 154.69 51.35 C 161.88 70.04 161.64 91.46 154.03 109.98 C 149.08 122.02 141.30 132.95 131.22 141.23 C 117.00 153.11 98.53 159.86 79.98 159.68 C 62.65 159.77 45.41 153.83 31.66 143.31 C 7.24 125.07 -4.80 92.08 2.21 62.39 C 6.19 44.53 16.50 28.13 30.97 16.92 C 44.47 6.33 61.46 0.33 78.61 0.00 M 30.08 32.09 C 18.82 43.88 11.88 59.74 11.11 76.04 C 10.14 91.10 14.58 106.30 22.92 118.82 C 39.86 100.94 65.57 91.97 89.97 95.15 C 107.80 97.33 124.94 105.68 137.30 118.76 C 148.26 103.02 151.99 82.54 147.50 63.91 C 143.81 48.03 134.22 33.64 121.06 24.03 C 106.83 13.51 88.43 8.80 70.89 11.28 C 55.45 13.30 40.81 20.81 30.08 32.09 Z" />
      <path d=" M 76.43 21.51 C 92.76 19.20 109.30 31.60 111.64 47.92 C 114.60 63.09 104.61 79.26 89.84 83.65 C 75.35 88.62 58.09 81.21 51.57 67.39 C 44.68 54.19 48.84 36.57 60.86 27.80 C 65.36 24.35 70.81 22.18 76.43 21.51 Z" />
    </symbol>
    <symbol id="result" viewBox="0 0 160 160">
      <path d=" M 32.67 0.00 L 126.71 0.00 C 135.40 0.39 142.97 8.16 142.80 16.91 C 142.86 49.37 142.82 81.84 142.82 114.31 C 132.92 114.34 123.02 114.19 113.12 114.36 C 103.78 114.69 96.25 123.75 97.15 132.97 C 97.18 141.98 97.17 150.99 97.17 160.00 L 33.02 160.00 C 24.43 159.42 17.01 151.74 17.20 143.06 C 17.16 101.02 17.16 58.96 17.20 16.92 C 17.02 8.35 24.25 0.81 32.67 0.00 M 98.90 35.90 C 96.21 38.43 97.41 42.48 97.17 45.74 C 94.81 45.71 92.44 45.57 90.09 45.84 C 86.16 46.69 84.23 52.01 87.02 55.05 C 89.48 58.12 93.76 57.01 97.17 57.13 C 97.42 60.40 96.19 64.50 98.95 66.99 C 101.05 69.22 104.96 69.11 106.97 66.81 C 109.46 64.19 108.34 60.28 108.61 57.04 C 111.68 56.97 115.30 58.02 117.90 55.85 C 120.60 53.77 120.68 49.16 117.95 47.06 C 115.36 44.83 111.69 45.92 108.61 45.82 C 108.34 42.59 109.46 38.69 106.99 36.07 C 104.97 33.72 101.02 33.64 98.90 35.90 M 60.39 49.45 C 53.72 66.46 47.14 83.51 40.50 100.53 C 39.65 102.35 39.49 104.53 40.70 106.24 C 42.73 110.06 49.05 109.76 50.66 105.73 C 52.66 101.00 54.37 96.15 56.33 91.40 C 62.59 91.45 68.86 91.46 75.13 91.40 C 76.92 95.91 78.60 100.47 80.45 104.96 C 81.52 107.78 85.04 109.49 87.85 108.16 C 90.89 106.94 92.38 103.05 90.78 100.13 C 84.00 83.18 77.59 66.07 70.87 49.10 C 69.10 44.51 61.87 44.77 60.39 49.45 Z" />
      <path d=" M 60.67 80.11 C 62.45 75.80 63.96 71.38 65.86 67.12 C 67.26 71.53 69.07 75.78 70.74 80.09 C 67.38 79.91 64.02 79.89 60.67 80.11 Z" />
      <path d=" M 108.57 132.02 C 108.21 128.92 110.82 125.77 113.98 125.74 C 122.52 125.60 131.07 125.84 139.61 125.62 C 129.33 136.06 118.73 146.18 108.66 156.82 C 108.45 148.56 108.61 140.29 108.57 132.02 Z" />
    </symbol>
    <symbol id="student" viewBox="0 0 160 160">
      <path d=" M 79.36 0.00 L 81.36 0.00 C 94.52 0.46 106.03 11.87 106.53 25.04 C 107.62 38.62 96.65 51.66 83.10 52.95 C 68.44 55.11 53.86 42.79 53.47 27.99 C 52.30 13.54 64.86 -0.02 79.36 0.00 Z" />
      <path d=" M 43.40 67.13 C 48.38 62.70 54.17 59.28 60.30 56.68 C 72.02 64.38 88.00 64.39 99.71 56.68 C 105.84 59.28 111.62 62.71 116.62 67.12 C 104.39 71.62 92.19 76.20 80.02 80.85 C 67.84 76.20 55.64 71.60 43.40 67.13 Z" />
      <path d=" M 25.47 76.14 C 25.91 73.13 29.54 71.43 32.19 72.87 C 46.56 78.28 60.96 83.63 75.32 89.07 C 75.33 112.71 75.31 136.36 75.33 160.00 L 74.96 160.00 C 59.84 154.01 44.52 148.52 29.31 142.75 C 27.53 142.15 25.67 140.91 25.46 138.87 C 25.10 135.32 25.39 131.74 25.37 128.17 C 30.55 128.43 35.95 126.19 38.70 121.65 C 41.50 117.65 40.85 112.57 40.92 107.97 C 40.82 103.32 41.55 98.20 38.79 94.11 C 36.03 89.49 30.61 87.18 25.34 87.42 C 25.40 83.66 25.09 79.88 25.47 76.14 Z" />
      <path d=" M 84.68 89.07 C 99.19 83.64 113.68 78.15 128.20 72.76 C 130.78 71.44 134.13 73.36 134.54 76.16 C 134.90 79.90 134.60 83.67 134.66 87.42 C 129.39 87.20 123.97 89.50 121.20 94.12 C 118.45 98.21 119.18 103.32 119.08 107.97 C 119.16 112.57 118.50 117.64 121.30 121.65 C 124.06 126.19 129.45 128.41 134.63 128.17 C 134.61 131.73 134.90 135.31 134.54 138.85 C 134.33 140.89 132.48 142.15 130.70 142.76 C 115.48 148.53 100.16 154.06 85.01 160.00 L 84.67 160.00 C 84.69 136.36 84.67 112.71 84.68 89.07 Z" />
      <path d=" M 20.35 97.41 C 23.91 96.62 29.36 95.68 31.23 99.79 C 31.98 104.16 31.38 108.67 31.57 113.10 C 31.88 115.55 30.31 118.25 27.76 118.65 C 23.55 119.17 18.70 118.67 15.77 115.24 C 13.67 112.65 11.53 109.33 12.59 105.85 C 13.92 102.18 16.44 98.58 20.35 97.41 Z" />
      <path d=" M 128.45 101.94 C 128.24 99.68 129.83 97.55 132.01 96.98 C 136.16 96.41 140.91 96.87 143.98 100.06 C 146.39 102.80 148.30 106.39 147.48 110.15 C 145.58 113.83 143.01 117.77 138.58 118.50 C 135.14 118.96 130.04 119.65 128.65 115.46 C 128.17 110.99 128.53 106.44 128.45 101.94 Z" />
    </symbol>
    <symbol id="subject" viewBox="0 0 160 160">
      <path d=" M 34.86 0.00 L 130.40 0.00 C 134.82 0.35 139.70 -0.14 143.63 2.31 C 148.81 5.15 152.05 11.01 151.76 16.91 C 151.71 53.91 151.83 90.91 151.70 127.91 C 112.80 127.69 73.90 127.92 34.99 127.79 C 32.14 127.81 28.93 127.70 26.59 129.62 C 21.97 133.79 24.02 143.66 30.98 143.68 C 71.22 143.90 111.49 143.72 151.74 143.76 C 151.73 149.17 151.85 154.59 151.64 160.00 L 37.63 160.00 C 31.28 159.89 24.54 159.60 19.03 156.04 C 12.03 152.08 8.05 144.03 8.25 136.11 C 8.24 98.71 8.24 61.32 8.25 23.92 C 8.14 16.99 11.00 9.86 16.61 5.62 C 21.73 1.48 28.42 0.08 34.86 0.00 Z" />
    </symbol>
    <symbol id="teacher" viewBox="0 0 160 160">
      <path d=" M 75.46 16.59 C 79.20 15.76 83.15 16.55 86.37 18.60 C 109.13 31.86 131.95 45.03 154.68 58.33 C 157.05 59.43 157.69 62.96 155.78 64.75 C 153.72 66.44 151.28 67.58 149.00 68.95 C 128.76 80.72 108.50 92.46 88.28 104.26 C 83.68 107.54 77.32 109.05 72.17 106.09 C 49.27 92.90 26.47 79.52 3.59 66.31 C 2.01 65.37 0.08 64.11 0.26 62.00 C 0.04 59.86 1.98 58.56 3.60 57.63 C 24.72 45.39 45.82 33.11 66.94 20.85 C 69.70 19.30 72.34 17.37 75.46 16.59 Z" />
      <path d=" M 145.70 80.71 C 149.16 78.66 152.65 76.63 156.12 74.58 C 156.01 89.00 156.10 103.41 156.07 117.82 C 157.74 119.60 159.28 121.55 160.00 123.92 L 160.00 126.92 C 159.20 131.16 155.45 134.74 151.04 134.72 C 145.55 135.02 140.71 129.44 141.85 124.03 C 142.17 121.47 144.09 119.64 145.73 117.83 C 145.71 105.46 145.77 93.08 145.70 80.71 Z" />
      <path d=" M 25.86 89.10 C 37.77 95.85 49.55 102.84 61.41 109.68 C 65.44 111.94 69.31 114.76 73.94 115.66 C 79.62 117.01 85.68 115.67 90.62 112.68 C 104.17 104.79 117.74 96.95 131.27 89.03 C 131.15 96.34 131.31 103.66 131.20 110.97 C 131.11 115.60 128.30 119.94 124.31 122.21 C 114.54 127.83 104.80 133.49 95.01 139.08 C 84.94 144.78 72.06 144.71 62.01 139.01 C 52.25 133.43 42.54 127.78 32.81 122.16 C 28.80 119.96 26.09 115.63 25.97 111.05 C 25.78 103.74 26.01 96.41 25.86 89.10 Z" />
    </symbol>
  </defs>
</svg>
