<svg width="160px" height="160px" viewBox="0 0 160 160" xmlns="http://www.w3.org/2000/svg">
  <path fill="#000" d=" M 14.27 13.46 C 15.76 11.60 17.08 8.78 19.97 9.36 C 59.97 9.36 99.98 9.36 139.98 9.36 C 143.14 8.75 144.46 12.02 146.13 13.99 C 150.64 20.44 155.94 26.35 160.00 33.10 L 160.00 35.73 C 158.49 38.51 156.54 41.01 154.61 43.51 C 139.39 63.69 124.30 83.97 109.02 104.11 C 113.60 113.73 113.38 125.53 107.81 134.70 C 101.24 146.25 87.05 152.78 74.01 150.08 C 61.16 147.83 50.42 136.99 48.26 124.13 C 46.88 117.36 48.20 110.35 50.98 104.11 C 34.85 82.84 18.93 61.42 2.83 40.12 C 1.80 38.73 0.86 37.28 0.00 35.78 L 0.00 33.14 C 4.16 26.18 9.64 20.11 14.27 13.46 M 23.28 13.94 C 25.31 17.13 27.73 20.05 30.01 23.05 C 32.33 23.02 34.66 22.98 36.98 22.92 C 65.67 22.84 94.37 22.85 123.07 22.92 C 125.38 22.98 127.70 23.02 130.01 23.05 C 132.26 20.02 134.72 17.15 136.71 13.94 C 134.37 13.94 132.03 13.97 129.69 14.07 C 96.57 14.10 63.46 14.11 30.34 14.06 C 27.99 13.97 25.63 13.94 23.28 13.94 M 18.49 15.61 C 16.69 18.15 14.81 20.64 12.86 23.06 C 29.91 45.53 46.67 68.23 63.79 90.65 C 66.42 88.98 69.35 87.88 72.35 87.08 C 54.28 63.35 36.58 39.33 18.49 15.61 M 87.69 87.07 C 90.70 87.88 93.62 89.01 96.30 90.64 C 104.54 79.77 112.69 68.83 120.90 57.93 C 121.85 56.43 123.38 55.51 125.18 56.07 C 125.86 57.36 126.34 58.93 125.13 60.10 C 116.80 71.11 108.65 82.26 100.17 93.15 C 102.44 95.17 104.53 97.38 106.37 99.80 C 122.83 78.00 139.35 56.23 155.54 34.24 C 153.63 31.84 151.77 29.40 150.00 26.90 C 144.05 34.99 138.00 43.02 131.92 51.01 C 131.22 52.31 129.71 52.31 128.43 52.14 C 128.11 51.59 127.48 50.49 127.16 49.95 C 133.50 40.76 140.47 32.01 147.14 23.06 C 145.20 20.64 143.33 18.16 141.53 15.63 C 123.42 39.32 105.72 63.32 87.69 87.07 M 4.46 34.19 C 20.60 56.24 37.20 77.96 53.62 99.81 C 55.46 97.39 57.56 95.17 59.84 93.16 C 43.08 71.19 26.53 49.04 10.00 26.89 C 8.24 29.39 6.41 31.83 4.46 34.19 M 33.62 27.65 C 36.41 31.54 39.41 35.27 42.17 39.17 C 49.44 39.39 56.72 39.18 63.99 39.33 C 65.16 39.27 65.91 39.86 66.22 41.08 C 68.37 41.12 70.51 41.12 72.66 41.06 C 72.86 40.69 73.25 39.93 73.45 39.56 C 88.20 38.87 103.04 39.59 117.82 39.18 C 120.59 35.27 123.59 31.53 126.39 27.65 C 95.47 27.57 64.55 27.56 33.62 27.65 M 66.35 41.92 C 66.42 43.76 64.38 44.00 63.03 43.91 C 57.27 43.94 51.51 43.89 45.75 43.89 C 56.17 58.05 66.93 71.94 77.32 86.12 C 79.50 85.99 82.47 87.13 83.71 84.65 C 93.86 71.05 104.15 57.54 114.25 43.90 C 100.84 43.83 87.41 44.07 74.01 43.79 C 73.71 43.61 73.13 43.25 72.84 43.06 L 72.62 41.94 C 70.53 41.92 68.44 41.91 66.35 41.92 M 76.02 91.10 C 61.92 92.84 50.87 106.85 52.54 120.98 C 53.58 135.74 68.18 147.85 82.92 145.74 C 98.10 144.60 110.01 129.01 107.20 114.06 C 105.21 99.62 90.42 88.67 76.02 91.10 Z" />
  <path fill="#000" d=" M 68.43 100.46 C 75.63 95.66 85.81 95.97 92.69 101.25 C 99.12 105.81 102.55 114.20 101.13 121.96 C 100.20 127.41 97.07 132.45 92.54 135.63 C 85.94 140.57 76.30 141.18 69.29 136.76 C 68.14 135.97 68.07 134.36 69.06 133.42 C 69.51 133.21 70.41 132.80 70.86 132.60 C 73.46 133.75 76.15 134.75 78.97 135.22 C 85.78 135.44 92.54 131.51 95.27 125.18 C 98.64 118.08 95.95 108.96 89.46 104.62 C 86.71 102.56 83.27 101.85 79.92 101.58 C 71.95 101.76 64.58 107.93 63.51 115.90 C 62.71 120.16 64.23 124.32 66.07 128.09 C 65.68 128.49 64.90 129.29 64.51 129.70 C 62.04 131.09 60.70 127.80 60.03 125.98 C 56.34 116.87 60.11 105.63 68.43 100.46 Z" />
  <g fill="#2944ad">
    <path d=" M 23.28 13.94 C 25.63 13.94 27.99 13.97 30.34 14.06 C 32.38 17.14 34.59 20.10 36.98 22.92 C 34.66 22.98 32.33 23.02 30.01 23.05 C 27.73 20.05 25.31 17.13 23.28 13.94 Z" />
    <path d=" M 129.69 14.07 C 132.03 13.97 134.37 13.94 136.71 13.94 C 134.72 17.15 132.26 20.02 130.01 23.05 C 127.70 23.02 125.38 22.98 123.07 22.92 C 125.42 20.08 127.62 17.12 129.69 14.07 Z" />
    <path d=" M 33.62 27.65 C 64.55 27.56 95.47 27.57 126.39 27.65 C 123.59 31.53 120.59 35.27 117.82 39.18 C 103.04 39.59 88.20 38.87 73.45 39.56 C 73.25 39.93 72.86 40.69 72.66 41.06 C 70.51 41.12 68.37 41.12 66.22 41.08 C 65.91 39.86 65.16 39.27 63.99 39.33 C 56.72 39.18 49.44 39.39 42.17 39.17 C 39.41 35.27 36.41 31.54 33.62 27.65 Z" />
  </g>
  <path fill="#5169cd" d=" M 30.34 14.06 C 63.46 14.11 96.57 14.10 129.69 14.07 C 127.62 17.12 125.42 20.08 123.07 22.92 C 94.37 22.85 65.67 22.84 36.98 22.92 C 34.59 20.10 32.38 17.14 30.34 14.06 Z" />
  <path fill="#b5dbfd" d=" M 18.49 15.61 C 36.58 39.33 54.28 63.35 72.35 87.08 C 69.35 87.88 66.42 88.98 63.79 90.65 C 46.67 68.23 29.91 45.53 12.86 23.06 C 14.81 20.64 16.69 18.15 18.49 15.61 Z" />
  <path fill="#64b9fc" d=" M 87.69 87.07 C 105.72 63.32 123.42 39.32 141.53 15.63 C 143.33 18.16 145.20 20.64 147.14 23.06 C 140.47 32.01 133.50 40.76 127.16 49.95 C 127.48 50.49 128.11 51.59 128.43 52.14 C 127.33 53.44 126.26 54.75 125.18 56.07 C 123.38 55.51 121.85 56.43 120.90 57.93 C 112.69 68.83 104.54 79.77 96.30 90.64 C 93.62 89.01 90.70 87.88 87.69 87.07 Z" />
  <path fill="#64b9fc" d=" M 4.46 34.19 C 6.41 31.83 8.24 29.39 10.00 26.89 C 26.53 49.04 43.08 71.19 59.84 93.16 C 57.56 95.17 55.46 97.39 53.62 99.81 C 37.20 77.96 20.60 56.24 4.46 34.19 Z" />
  <path fill="#31a7fb" d=" M 131.92 51.01 C 138.00 43.02 144.05 34.99 150.00 26.90 C 151.77 29.40 153.63 31.84 155.54 34.24 C 139.35 56.23 122.83 78.00 106.37 99.80 C 104.53 97.38 102.44 95.17 100.17 93.15 C 108.65 82.26 116.80 71.11 125.13 60.10 C 126.34 58.93 125.86 57.36 125.18 56.07 C 126.26 54.75 127.33 53.44 128.43 52.14 C 129.71 52.31 131.22 52.31 131.92 51.01 Z" />
  <path fill="#f88a26" d=" M 76.02 91.10 C 90.42 88.67 105.21 99.62 107.20 114.06 C 110.01 129.01 98.10 144.60 82.92 145.74 C 68.18 147.85 53.58 135.74 52.54 120.98 C 50.87 106.85 61.92 92.84 76.02 91.10 M 68.43 100.46 C 60.11 105.63 56.34 116.87 60.03 125.98 C 60.70 127.80 62.04 131.09 64.51 129.70 C 65.99 130.92 67.03 133.10 69.06 133.42 C 68.07 134.36 68.14 135.97 69.29 136.76 C 76.30 141.18 85.94 140.57 92.54 135.63 C 97.07 132.45 100.20 127.41 101.13 121.96 C 102.55 114.20 99.12 105.81 92.69 101.25 C 85.81 95.97 75.63 95.66 68.43 100.46 Z" />
  <path fill="#f88a26" d=" M 79.92 101.58 C 83.27 101.85 86.71 102.56 89.46 104.62 C 95.95 108.96 98.64 118.08 95.27 125.18 C 92.54 131.51 85.78 135.44 78.97 135.22 C 85.59 131.86 90.55 124.63 89.66 117.02 C 89.55 110.47 84.91 105.26 79.92 101.58 Z" />
  <path fill="#fee265" d=" M 63.51 115.90 C 64.58 107.93 71.95 101.76 79.92 101.58 C 84.91 105.26 89.55 110.47 89.66 117.02 C 90.55 124.63 85.59 131.86 78.97 135.22 C 76.15 134.75 73.46 133.75 70.86 132.60 C 70.41 132.80 69.51 133.21 69.06 133.42 C 67.03 133.10 65.99 130.92 64.51 129.70 C 64.90 129.29 65.68 128.49 66.07 128.09 C 64.23 124.32 62.71 120.16 63.51 115.90 Z" />
</svg>
