<svg width="160px" height="160px" viewBox="0 0 160 160" xmlns="http://www.w3.org/2000/svg">
  <g fill="#000">
    <path d=" M 0.00 5.49 C 1.20 3.23 3.29 1.24 6.06 1.55 C 55.36 1.51 104.66 1.50 153.96 1.55 C 156.69 1.21 158.55 3.27 160.00 5.25 L 160.00 16.65 C 158.68 19.87 155.37 20.92 152.16 20.89 C 152.26 50.37 152.27 79.84 152.15 109.32 C 155.33 109.33 158.37 110.37 160.00 113.27 L 160.00 124.64 C 158.86 126.93 156.78 128.96 154.03 128.68 C 130.09 128.80 106.14 128.52 82.20 128.81 C 82.30 131.41 82.34 134.01 82.37 136.61 C 86.77 138.27 90.85 141.92 90.88 146.94 C 91.61 154.11 83.90 160.31 77.05 158.07 C 70.78 156.50 67.19 148.84 70.06 143.03 C 71.37 139.72 74.63 138.01 77.67 136.60 C 77.69 133.92 77.65 131.23 77.54 128.55 C 53.67 128.86 29.80 128.63 5.93 128.68 C 3.21 128.99 1.38 126.88 0.00 124.86 L 0.00 113.52 C 1.34 110.30 4.66 109.37 7.85 109.32 C 7.86 104.51 7.54 99.69 7.89 94.89 C 7.90 93.49 9.41 92.85 10.17 91.86 C 10.72 92.51 11.82 93.81 12.37 94.46 C 12.72 99.49 12.38 104.54 12.45 109.57 C 57.47 109.54 102.49 109.56 147.51 109.56 C 147.45 79.92 147.45 50.29 147.51 20.65 C 138.64 20.76 129.75 20.57 120.88 20.74 C 120.20 19.86 119.53 18.96 118.85 18.08 C 120.01 17.01 121.19 15.73 122.94 15.96 C 130.88 15.82 138.83 15.99 146.78 15.92 C 149.61 15.92 152.43 15.93 155.26 15.94 C 155.36 12.69 155.35 9.43 155.21 6.18 C 152.42 6.22 149.63 6.25 146.84 6.24 C 103.22 6.22 59.60 6.24 15.97 6.23 C 12.18 6.22 8.37 6.09 4.60 6.53 C 4.67 9.65 4.60 12.77 4.91 15.87 C 39.94 16.01 74.99 15.85 110.02 15.95 C 111.78 15.66 112.99 16.89 114.14 17.98 C 113.89 18.59 113.40 19.80 113.16 20.40 C 109.78 20.79 106.37 20.72 102.98 20.70 C 72.82 20.67 42.67 20.74 12.52 20.67 C 12.53 42.19 12.46 63.72 12.55 85.24 C 12.32 85.48 11.86 85.97 11.64 86.21 C 10.46 86.29 9.27 86.36 8.09 86.42 C 7.87 83.95 7.74 81.47 7.75 78.99 C 7.86 59.62 7.68 40.26 7.84 20.89 C 4.62 20.97 1.59 19.80 0.00 16.86 L 0.00 5.49 M 4.82 114.22 C 4.60 117.48 4.62 120.75 4.76 124.02 C 52.10 124.13 99.43 124.08 146.77 124.04 C 149.59 124.09 152.41 124.10 155.24 123.99 C 155.38 120.73 155.41 117.47 155.16 114.22 C 152.39 114.27 149.62 114.28 146.85 114.28 C 99.51 114.23 52.16 114.33 4.82 114.22 M 78.38 141.52 C 74.12 142.55 72.11 148.44 75.32 151.64 C 78.11 155.18 84.26 154.07 85.79 149.88 C 87.94 145.42 83.03 140.02 78.38 141.52 Z" />
    <path d=" M 38.56 34.98 C 39.64 32.32 42.09 30.29 44.96 29.91 C 48.41 29.50 51.83 31.74 53.08 34.95 C 58.62 47.04 64.20 59.11 69.69 71.22 C 72.66 76.67 66.64 83.68 60.83 81.79 C 57.82 81.18 56.02 78.45 54.80 75.86 C 48.85 75.81 42.90 75.88 36.95 75.81 C 35.57 78.63 33.49 81.54 30.13 81.98 C 24.62 83.10 19.38 76.75 21.82 71.57 C 27.33 59.35 32.99 47.18 38.56 34.98 M 44.13 35.01 C 43.10 36.14 42.52 37.57 41.88 38.93 C 36.74 50.39 31.36 61.74 26.23 73.21 C 25.13 75.19 27.05 77.34 29.04 77.52 C 32.21 77.02 32.02 72.94 34.31 71.40 C 41.55 70.98 48.84 71.28 56.09 71.25 C 59.63 71.11 58.93 76.56 62.01 77.29 C 64.45 78.11 66.78 74.83 65.26 72.75 C 59.79 60.83 54.34 48.90 48.85 36.99 C 48.19 35.10 45.99 33.71 44.13 35.01 Z" />
    <path d=" M 89.73 35.99 C 90.50 32.25 94.22 29.63 97.98 29.86 C 109.33 29.94 120.69 29.67 132.03 29.99 C 137.58 30.44 140.83 37.75 137.22 42.07 C 129.93 50.45 122.14 58.39 114.81 66.74 C 120.19 66.68 125.58 66.62 130.96 66.69 C 134.92 66.58 138.61 69.98 138.73 73.96 C 139.06 78.20 135.29 82.12 131.06 82.07 C 120.03 82.16 109.00 82.10 97.97 82.10 C 93.52 82.39 89.26 78.54 89.58 74.00 C 89.79 69.97 93.43 67.55 95.74 64.66 C 97.14 63.35 98.89 60.37 100.92 62.51 C 101.25 62.89 101.92 63.64 102.25 64.01 C 101.51 65.06 100.77 66.12 100.04 67.17 C 98.19 69.06 96.24 70.86 94.62 72.95 C 94.18 74.29 94.50 75.61 95.21 76.78 C 100.05 77.91 105.06 77.17 109.97 77.36 C 117.62 77.15 125.31 77.83 132.93 76.98 C 133.59 75.80 133.99 74.50 134.21 73.17 C 133.69 72.79 132.66 72.03 132.15 71.65 C 124.77 70.96 117.35 71.68 109.96 71.33 C 108.41 71.58 107.16 70.50 106.93 69.00 C 108.04 66.59 110.15 64.87 111.87 62.92 C 118.73 55.43 125.62 47.97 132.47 40.47 C 133.68 39.37 134.09 37.82 134.11 36.24 C 131.06 33.48 126.70 34.93 122.99 34.60 C 113.73 34.97 104.35 33.86 95.18 35.20 C 94.48 36.42 94.18 37.78 94.60 39.16 C 94.93 39.43 95.57 39.98 95.89 40.26 C 103.56 41.10 111.30 40.21 118.99 40.67 C 120.41 40.48 122.26 42.82 120.91 43.93 C 118.37 47.35 115.19 50.23 112.42 53.47 C 110.26 55.69 108.42 58.84 104.96 58.94 C 104.60 57.99 104.28 57.02 104.01 56.04 C 106.82 52.12 110.49 48.92 113.58 45.23 C 108.04 45.27 102.49 45.38 96.95 45.25 C 92.41 45.17 88.64 40.43 89.73 35.99 Z" />
    <path d=" M 43.68 49.60 C 44.17 47.85 46.90 47.44 47.72 49.16 C 49.91 53.35 51.80 57.71 53.70 62.05 C 54.69 63.72 52.62 65.45 51.02 65.21 C 47.66 65.30 44.30 65.29 40.94 65.22 C 39.31 65.54 38.30 64.23 37.39 63.15 C 39.55 58.67 41.42 54.04 43.68 49.60 M 43.70 60.56 C 45.11 60.55 46.53 60.54 47.94 60.52 C 47.30 59.05 46.66 57.57 46.01 56.10 C 45.09 57.50 44.35 59.02 43.70 60.56 Z" />
    <path d=" M 68.46 49.88 C 69.59 47.21 72.79 48.29 75.03 48.05 C 76.79 48.13 79.57 47.67 79.98 50.04 C 80.48 52.05 77.98 52.65 76.59 53.05 C 76.51 55.53 76.92 58.08 76.38 60.53 C 75.54 62.51 72.33 62.13 71.99 60.01 C 71.73 57.69 71.91 55.36 71.94 53.04 C 70.38 52.64 68.06 52.05 68.46 49.88 Z" />
    <path d=" M 84.47 48.64 C 88.62 46.41 93.60 50.60 92.72 55.05 C 93.29 58.82 89.74 62.66 85.87 61.74 C 80.07 60.58 79.47 51.19 84.47 48.64 M 85.93 52.83 C 85.94 54.28 85.96 55.73 85.99 57.19 C 88.79 57.48 87.89 54.63 88.08 52.85 C 87.36 52.84 86.65 52.83 85.93 52.83 Z" />
    <path d=" M 122.31 87.24 C 126.89 86.87 131.52 87.12 136.11 87.10 C 137.50 86.84 138.19 88.31 139.18 88.95 C 139.01 89.43 138.67 90.38 138.49 90.86 C 133.46 92.78 127.83 91.16 122.56 91.79 C 120.66 90.99 120.02 88.00 122.31 87.24 Z" />
    <path d=" M 97.44 95.02 C 110.60 94.67 123.78 94.83 136.95 94.93 C 139.43 95.58 139.27 99.35 136.71 99.54 C 124.18 99.73 111.65 99.58 99.12 99.61 C 97.36 100.00 96.57 98.30 95.69 97.15 C 96.13 96.62 97.00 95.55 97.44 95.02 Z" />
  </g>
  <path fill="#fcb982" d=" M 4.60 6.53 C 8.37 6.09 12.18 6.22 15.97 6.23 C 59.60 6.24 103.22 6.22 146.84 6.24 C 146.77 9.47 146.75 12.70 146.78 15.92 C 138.83 15.99 130.88 15.82 122.94 15.96 C 121.19 15.73 120.01 17.01 118.85 18.08 C 117.28 18.08 115.71 18.05 114.14 17.98 C 112.99 16.89 111.78 15.66 110.02 15.95 C 74.99 15.85 39.94 16.01 4.91 15.87 C 6.31 13.55 6.21 10.80 6.32 8.20 C 12.55 7.85 18.79 7.99 25.03 7.97 C 64.36 8.03 103.69 7.98 143.02 8.01 C 143.92 7.95 145.72 7.84 146.61 7.79 C 142.94 6.18 138.84 7.16 134.97 6.99 C 95.99 6.99 57.01 7.00 18.03 6.97 C 13.55 6.99 9.05 7.11 4.60 6.53 Z" />
  <path fill="#fcb982" d=" M 4.82 114.22 C 52.16 114.33 99.51 114.23 146.85 114.28 C 146.76 117.53 146.73 120.79 146.77 124.04 C 99.43 124.08 52.10 124.13 4.76 124.02 C 4.62 120.75 4.60 117.48 4.82 114.22 Z" />
  <path fill="#fc9744" d=" M 146.84 6.24 C 149.63 6.25 152.42 6.22 155.21 6.18 C 155.35 9.43 155.36 12.69 155.26 15.94 C 152.43 15.93 149.61 15.92 146.78 15.92 C 146.75 12.70 146.77 9.47 146.84 6.24 Z" />
  <path fill="#fc9744" d=" M 146.85 114.28 C 149.62 114.28 152.39 114.27 155.16 114.22 C 155.41 117.47 155.38 120.73 155.24 123.99 C 152.41 124.10 149.59 124.09 146.77 124.04 C 146.73 120.79 146.76 117.53 146.85 114.28 Z" />
  <path fill="#ffd294" d=" M 4.60 6.53 C 9.05 7.11 13.55 6.99 18.03 6.97 C 57.01 7.00 95.99 6.99 134.97 6.99 C 138.84 7.16 142.94 6.18 146.61 7.79 C 145.72 7.84 143.92 7.95 143.02 8.01 C 103.69 7.98 64.36 8.03 25.03 7.97 C 18.79 7.99 12.55 7.85 6.32 8.20 C 6.21 10.80 6.31 13.55 4.91 15.87 C 4.60 12.77 4.67 9.65 4.60 6.53 Z" />
  <path fill="#e1dde1" d=" M 114.14 17.98 C 115.71 18.05 117.28 18.08 118.85 18.08 C 119.53 18.96 120.20 19.86 120.88 20.74 C 120.52 21.08 119.81 21.76 119.45 22.11 C 128.18 22.58 136.92 22.08 145.66 22.32 C 145.79 50.80 145.75 79.27 145.66 107.75 C 143.73 107.76 141.79 107.77 139.86 107.79 C 139.84 99.84 140.21 91.89 139.70 83.95 C 140.59 74.64 139.54 65.34 139.73 56.01 C 139.42 45.99 140.73 35.97 139.61 25.96 C 130.42 25.46 121.21 25.95 112.02 25.75 C 79.36 25.87 46.70 25.57 14.05 25.89 C 14.05 24.62 14.06 23.35 14.07 22.08 C 42.70 22.06 71.33 22.06 99.96 22.06 C 104.16 22.07 108.37 22.23 112.56 21.83 C 112.71 21.47 113.01 20.76 113.16 20.40 C 113.40 19.80 113.89 18.59 114.14 17.98 Z" />
  <path fill="#fefbfe" d=" M 102.98 20.70 C 106.37 20.72 109.78 20.79 113.16 20.40 C 113.01 20.76 112.71 21.47 112.56 21.83 C 108.37 22.23 104.16 22.07 99.96 22.06 C 71.33 22.06 42.70 22.06 14.07 22.08 C 14.06 23.35 14.05 24.62 14.05 25.89 C 14.07 45.89 14.09 65.89 14.03 85.89 C 13.66 85.73 12.92 85.40 12.55 85.24 C 12.46 63.72 12.53 42.19 12.52 20.67 C 42.67 20.74 72.82 20.67 102.98 20.70 Z" />
  <path fill="#f2eff2" d=" M 119.45 22.11 C 119.81 21.76 120.52 21.08 120.88 20.74 C 129.75 20.57 138.64 20.76 147.51 20.65 C 147.45 50.29 147.45 79.92 147.51 109.56 C 102.49 109.56 57.47 109.54 12.45 109.57 C 12.38 104.54 12.72 99.49 12.37 94.46 C 11.82 93.81 10.72 92.51 10.17 91.86 C 10.17 90.57 10.17 89.27 10.17 87.98 C 10.67 87.40 11.16 86.81 11.64 86.21 C 11.86 85.97 12.32 85.48 12.55 85.24 C 12.92 85.40 13.66 85.73 14.03 85.89 C 14.09 65.89 14.07 45.89 14.05 25.89 C 46.70 25.57 79.36 25.87 112.02 25.75 C 121.21 25.95 130.42 25.46 139.61 25.96 C 140.73 35.97 139.42 45.99 139.73 56.01 C 139.54 65.34 140.59 74.64 139.70 83.95 C 140.21 91.89 139.84 99.84 139.86 107.79 C 141.79 107.77 143.73 107.76 145.66 107.75 C 145.75 79.27 145.79 50.80 145.66 22.32 C 136.92 22.08 128.18 22.58 119.45 22.11 M 38.56 34.98 C 32.99 47.18 27.33 59.35 21.82 71.57 C 19.38 76.75 24.62 83.10 30.13 81.98 C 33.49 81.54 35.57 78.63 36.95 75.81 C 42.90 75.88 48.85 75.81 54.80 75.86 C 56.02 78.45 57.82 81.18 60.83 81.79 C 66.64 83.68 72.66 76.67 69.69 71.22 C 64.20 59.11 58.62 47.04 53.08 34.95 C 51.83 31.74 48.41 29.50 44.96 29.91 C 42.09 30.29 39.64 32.32 38.56 34.98 M 89.73 35.99 C 88.64 40.43 92.41 45.17 96.95 45.25 C 102.49 45.38 108.04 45.27 113.58 45.23 C 110.49 48.92 106.82 52.12 104.01 56.04 C 104.28 57.02 104.60 57.99 104.96 58.94 C 103.14 59.39 102.21 61.31 100.92 62.51 C 98.89 60.37 97.14 63.35 95.74 64.66 C 93.43 67.55 89.79 69.97 89.58 74.00 C 89.26 78.54 93.52 82.39 97.97 82.10 C 109.00 82.10 120.03 82.16 131.06 82.07 C 135.29 82.12 139.06 78.20 138.73 73.96 C 138.61 69.98 134.92 66.58 130.96 66.69 C 125.58 66.62 120.19 66.68 114.81 66.74 C 122.14 58.39 129.93 50.45 137.22 42.07 C 140.83 37.75 137.58 30.44 132.03 29.99 C 120.69 29.67 109.33 29.94 97.98 29.86 C 94.22 29.63 90.50 32.25 89.73 35.99 M 68.46 49.88 C 68.06 52.05 70.38 52.64 71.94 53.04 C 71.91 55.36 71.73 57.69 71.99 60.01 C 72.33 62.13 75.54 62.51 76.38 60.53 C 76.92 58.08 76.51 55.53 76.59 53.05 C 77.98 52.65 80.48 52.05 79.98 50.04 C 79.57 47.67 76.79 48.13 75.03 48.05 C 72.79 48.29 69.59 47.21 68.46 49.88 M 84.47 48.64 C 79.47 51.19 80.07 60.58 85.87 61.74 C 89.74 62.66 93.29 58.82 92.72 55.05 C 93.60 50.60 88.62 46.41 84.47 48.64 M 122.31 87.24 C 120.02 88.00 120.66 90.99 122.56 91.79 C 114.99 94.42 106.78 92.23 98.94 93.07 C 97.45 92.89 96.58 94.07 95.79 95.11 L 97.44 95.02 C 97.00 95.55 96.13 96.62 95.69 97.15 C 96.57 98.30 97.36 100.00 99.12 99.61 C 111.65 99.58 124.18 99.73 136.71 99.54 C 139.27 99.35 139.43 95.58 136.95 94.93 C 137.67 93.66 138.47 92.37 138.49 90.86 C 138.67 90.38 139.01 89.43 139.18 88.95 C 138.19 88.31 137.50 86.84 136.11 87.10 C 131.52 87.12 126.89 86.87 122.31 87.24 Z" />
  <path fill="#fb8627" d=" M 44.13 35.01 C 45.99 33.71 48.19 35.10 48.85 36.99 C 54.34 48.90 59.79 60.83 65.26 72.75 C 66.78 74.83 64.45 78.11 62.01 77.29 C 58.93 76.56 59.63 71.11 56.09 71.25 C 48.84 71.28 41.55 70.98 34.31 71.40 C 32.02 72.94 32.21 77.02 29.04 77.52 C 27.05 77.34 25.13 75.19 26.23 73.21 C 31.36 61.74 36.74 50.39 41.88 38.93 C 42.52 37.57 43.10 36.14 44.13 35.01 M 43.68 49.60 C 41.42 54.04 39.55 58.67 37.39 63.15 C 38.30 64.23 39.31 65.54 40.94 65.22 C 44.30 65.29 47.66 65.30 51.02 65.21 C 52.62 65.45 54.69 63.72 53.70 62.05 C 51.80 57.71 49.91 53.35 47.72 49.16 C 46.90 47.44 44.17 47.85 43.68 49.60 Z" />
  <path fill="#fdd330" d=" M 94.60 39.16 C 94.18 37.78 94.48 36.42 95.18 35.20 C 100.30 36.74 105.70 35.82 110.96 36.01 C 118.68 35.88 126.40 36.16 134.11 36.24 C 134.09 37.82 133.68 39.37 132.47 40.47 C 125.62 47.97 118.73 55.43 111.87 62.92 C 110.15 64.87 108.04 66.59 106.93 69.00 C 107.16 70.50 108.41 71.58 109.96 71.33 C 117.35 71.68 124.77 70.96 132.15 71.65 C 124.19 72.53 116.20 71.85 108.22 72.09 L 108.22 72.88 C 116.88 73.08 125.54 73.04 134.21 73.17 C 133.99 74.50 133.59 75.80 132.93 76.98 C 127.57 74.83 121.63 76.37 116.01 75.95 C 109.09 76.36 102.00 74.99 95.21 76.78 C 94.50 75.61 94.18 74.29 94.62 72.95 C 94.71 73.53 94.90 74.69 95.00 75.27 C 97.18 72.92 99.09 70.28 100.04 67.17 C 100.77 66.12 101.51 65.06 102.25 64.01 C 101.92 63.64 101.25 62.89 100.92 62.51 C 102.21 61.31 103.14 59.39 104.96 58.94 C 108.42 58.84 110.26 55.69 112.42 53.47 C 115.19 50.23 118.37 47.35 120.91 43.93 C 122.26 42.82 120.41 40.48 118.99 40.67 C 111.30 40.21 103.56 41.10 95.89 40.26 C 104.07 39.49 112.30 40.44 120.47 39.57 C 113.37 38.25 106.13 39.38 98.97 38.97 C 97.31 39.05 96.05 37.88 94.73 37.08 C 94.70 37.60 94.64 38.64 94.60 39.16 Z" />
  <path fill="#fff237" d=" M 95.18 35.20 C 104.35 33.86 113.73 34.97 122.99 34.60 C 126.70 34.93 131.06 33.48 134.11 36.24 C 126.40 36.16 118.68 35.88 110.96 36.01 C 105.70 35.82 100.30 36.74 95.18 35.20 Z" />
  <path fill="#fef638" d=" M 94.73 37.08 C 96.05 37.88 97.31 39.05 98.97 38.97 C 106.13 39.38 113.37 38.25 120.47 39.57 C 112.30 40.44 104.07 39.49 95.89 40.26 C 95.57 39.98 94.93 39.43 94.60 39.16 C 94.64 38.64 94.70 37.60 94.73 37.08 Z" />
  <g fill="#fff">
    <path d=" M 85.93 52.83 C 86.65 52.83 87.36 52.84 88.08 52.85 C 87.89 54.63 88.79 57.48 85.99 57.19 C 85.96 55.73 85.94 54.28 85.93 52.83 Z" />
    <path d=" M 43.70 60.56 C 44.35 59.02 45.09 57.50 46.01 56.10 C 46.66 57.57 47.30 59.05 47.94 60.52 C 46.53 60.54 45.11 60.55 43.70 60.56 Z" />
    <path d=" M 122.56 91.79 C 127.83 91.16 133.46 92.78 138.49 90.86 C 138.47 92.37 137.67 93.66 136.95 94.93 C 123.78 94.83 110.60 94.67 97.44 95.02 L 95.79 95.11 C 96.58 94.07 97.45 92.89 98.94 93.07 C 106.78 92.23 114.99 94.42 122.56 91.79 Z" />
  </g>
  <path fill="#feee36" d=" M 94.62 72.95 C 96.24 70.86 98.19 69.06 100.04 67.17 C 99.09 70.28 97.18 72.92 95.00 75.27 C 94.90 74.69 94.71 73.53 94.62 72.95 Z" />
  <path fill="#fff438" d=" M 108.22 72.09 C 116.20 71.85 124.19 72.53 132.15 71.65 C 132.66 72.03 133.69 72.79 134.21 73.17 C 125.54 73.04 116.88 73.08 108.22 72.88 L 108.22 72.09 Z" />
  <path fill="#fff137" d=" M 95.21 76.78 C 102.00 74.99 109.09 76.36 116.01 75.95 C 121.63 76.37 127.57 74.83 132.93 76.98 C 125.31 77.83 117.62 77.15 109.97 77.36 C 105.06 77.17 100.05 77.91 95.21 76.78 Z" />
</svg>