<svg width="160px" height="160px" viewBox="0 0 160 160" xmlns="http://www.w3.org/2000/svg">
  <g fill="#000">
    <path d=" M 31.34 10.47 C 36.05 8.77 41.11 9.12 46.03 9.11 C 77.69 9.16 109.36 9.08 141.03 9.14 C 146.52 8.68 151.11 14.81 148.87 19.92 C 147.82 23.31 144.23 24.49 141.23 25.57 C 141.27 31.40 141.27 37.23 141.23 43.06 C 143.64 44.02 146.56 44.59 147.99 47.00 C 149.68 49.17 149.17 52.03 149.19 54.58 C 151.28 54.83 153.44 54.84 155.43 55.58 C 157.78 56.56 159.02 58.93 160.00 61.13 L 160.00 63.91 C 159.32 68.09 155.64 70.28 151.88 71.30 C 151.81 77.11 151.82 82.91 151.88 88.71 C 155.67 89.69 159.32 91.94 160.00 96.13 L 160.00 98.68 C 159.40 100.10 158.71 101.49 158.04 102.88 C 158.72 104.31 159.41 105.75 160.00 107.23 L 160.00 110.82 C 158.39 113.95 155.58 116.03 152.18 116.87 C 152.02 117.85 151.87 118.83 151.72 119.82 C 151.05 120.54 150.37 121.27 149.69 121.99 C 149.84 123.56 150.01 125.12 150.21 126.69 C 152.08 128.89 151.90 131.77 152.03 134.49 C 155.86 135.48 159.55 137.86 160.00 142.15 L 160.00 144.79 C 158.67 148.06 155.86 151.02 152.07 150.83 C 111.70 150.96 71.31 150.82 30.93 150.90 C 25.84 150.92 20.56 151.15 15.78 149.09 C 7.02 145.66 0.80 137.03 0.00 127.70 L 0.00 124.28 C 0.49 115.17 6.26 106.94 14.35 102.90 C 6.68 98.89 1.06 91.33 0.00 82.66 L 0.00 77.35 C 0.88 71.75 3.21 66.29 7.30 62.30 C 11.77 57.54 18.17 55.24 24.55 54.65 C 18.94 50.04 14.77 43.39 14.43 35.99 C 13.47 24.93 20.83 13.94 31.34 10.47 M 33.70 14.69 C 25.29 16.88 19.04 25.33 19.09 33.98 C 18.81 41.95 23.80 49.69 31.02 52.97 C 35.08 55.01 39.73 54.65 44.14 54.78 C 43.10 53.86 42.04 52.97 40.98 52.08 C 34.83 45.52 32.01 35.80 34.82 27.10 C 36.24 21.63 40.09 17.34 44.15 13.62 C 40.64 13.65 37.09 13.64 33.70 14.69 M 41.87 22.95 C 37.24 29.72 37.33 39.27 42.11 45.94 C 45.84 51.40 52.29 54.91 58.94 54.77 C 68.30 54.79 77.67 54.76 87.04 54.76 C 92.70 54.67 98.45 55.25 104.02 53.91 C 114.61 55.71 125.45 54.33 136.14 54.77 C 138.31 54.75 140.50 54.93 142.64 54.56 C 145.37 53.56 145.38 49.38 142.63 48.39 C 140.50 48.02 138.32 48.20 136.17 48.18 C 111.76 48.22 87.35 48.15 62.94 48.22 C 58.94 48.30 54.61 48.22 51.23 45.75 C 45.12 41.92 43.21 33.00 47.18 26.98 C 49.05 23.63 52.65 22.03 55.92 20.39 C 70.30 20.40 84.69 20.21 99.07 20.47 C 99.51 21.30 99.95 22.13 100.37 22.97 C 99.42 23.83 98.60 25.31 97.09 25.10 C 84.38 25.20 71.67 25.07 58.95 25.14 C 54.09 24.89 49.83 29.25 49.72 34.03 C 49.55 38.98 53.92 43.63 58.94 43.47 C 84.80 43.51 110.67 43.44 136.54 43.48 C 136.52 40.76 136.51 38.03 136.58 35.31 C 121.03 35.28 105.48 35.24 89.94 35.29 C 87.15 35.21 83.67 36.01 82.12 32.99 C 83.14 31.72 84.14 30.11 86.05 30.57 C 102.90 30.56 119.75 30.57 136.60 30.54 C 136.54 28.72 136.52 26.90 136.48 25.09 C 127.30 25.25 118.12 25.09 108.94 25.10 C 106.98 25.50 106.01 23.81 105.03 22.49 C 105.82 21.92 106.57 21.32 107.28 20.66 L 106.83 20.23 C 116.61 20.56 126.40 20.21 136.19 20.38 C 138.44 20.35 140.78 20.69 142.97 20.03 C 144.35 19.14 145.37 17.16 144.36 15.63 C 142.76 12.70 138.85 14.04 136.16 13.75 C 111.11 13.80 86.07 13.76 61.03 13.76 C 59.43 13.80 57.85 13.94 56.28 14.20 C 50.42 14.29 45.08 18.23 41.87 22.95 M 17.04 61.13 C 9.07 64.48 3.85 73.28 4.74 81.88 C 5.43 89.53 10.73 96.58 17.96 99.24 C 21.75 100.71 25.88 100.45 29.87 100.63 C 28.24 99.11 26.44 97.73 25.15 95.88 C 25.32 94.80 25.43 93.71 25.49 92.61 C 26.13 92.72 27.41 92.95 28.05 93.06 C 31.90 95.57 35.28 99.72 40.26 99.80 C 44.77 100.87 49.42 100.36 54.01 100.45 C 85.08 100.48 116.14 100.39 147.21 100.49 C 150.25 100.58 155.27 101.27 155.48 96.95 C 154.54 92.80 149.63 93.96 146.51 93.82 C 112.67 93.89 78.83 93.85 44.99 93.85 C 37.46 94.22 30.53 87.58 30.67 80.03 C 30.50 72.48 37.39 65.81 44.92 66.15 C 59.65 66.15 74.37 66.10 89.09 66.19 C 90.54 64.77 91.95 63.32 93.38 61.88 C 94.11 61.09 94.85 60.31 95.60 59.55 C 79.40 59.53 63.20 59.57 47.00 59.53 C 44.67 59.52 42.35 59.69 40.04 59.99 C 31.30 61.84 24.37 70.02 24.15 78.97 C 23.97 82.25 25.49 85.68 23.73 88.75 C 19.29 88.35 19.38 83.38 19.35 80.01 C 19.10 71.85 23.56 64.28 29.87 59.36 C 25.56 59.54 21.05 59.28 17.04 61.13 M 98.10 63.83 C 94.04 68.00 89.78 71.98 85.79 76.23 C 93.76 76.36 101.73 76.28 109.70 76.26 C 113.95 76.30 118.21 76.30 122.46 76.29 C 116.35 70.16 110.33 63.94 104.03 58.00 C 102.02 59.91 100.06 61.87 98.10 63.83 M 112.52 59.49 C 113.72 60.63 114.86 61.85 115.98 63.08 C 116.91 64.16 117.92 65.15 118.92 66.17 C 128.09 66.14 137.25 66.11 146.42 66.18 C 148.61 66.18 150.83 66.27 153.00 65.95 C 154.83 65.31 156.28 62.90 154.89 61.16 C 153.34 58.57 149.83 59.75 147.34 59.50 C 135.74 59.56 124.13 59.55 112.52 59.49 M 35.41 79.11 C 34.88 83.68 38.49 88.68 43.21 88.93 C 46.44 89.38 49.71 89.20 52.96 89.22 C 78.64 89.22 104.31 89.22 129.98 89.22 C 133.21 89.22 136.45 89.33 139.67 89.00 C 142.16 89.40 144.69 89.18 147.20 89.23 C 147.18 86.51 147.19 83.78 147.19 81.06 C 114.77 80.74 82.34 81.00 49.91 80.89 C 48.35 81.23 46.08 79.77 46.95 78.00 C 47.22 76.68 48.70 76.18 49.88 76.30 C 59.58 76.27 69.28 76.26 78.98 76.32 C 80.83 74.45 82.72 72.62 84.57 70.74 C 71.40 70.81 58.23 70.73 45.06 70.77 C 40.30 70.49 35.82 74.36 35.41 79.11 M 123.59 70.72 C 125.37 72.53 127.09 74.42 129.05 76.05 C 135.05 76.63 141.16 76.07 147.20 76.27 C 147.20 75.83 147.20 74.93 147.20 74.48 C 147.20 73.55 147.20 71.70 147.20 70.77 C 144.42 70.76 141.65 70.79 138.88 70.77 C 133.78 70.76 128.68 70.80 123.59 70.72 M 16.25 107.25 C 7.60 111.29 2.67 121.84 5.38 131.05 C 7.33 138.63 13.92 144.40 21.48 146.05 C 24.25 146.19 27.02 146.27 29.79 146.35 C 24.53 141.93 20.31 135.90 19.59 128.91 C 18.34 120.48 22.08 112.04 28.23 106.37 L 28.73 106.37 C 29.00 106.08 29.53 105.49 29.80 105.20 C 25.23 105.23 20.41 105.02 16.25 107.25 M 24.18 123.93 C 23.21 132.74 28.81 141.62 37.02 144.79 C 41.76 146.76 47.00 146.19 52.00 146.25 C 83.60 146.25 115.19 146.24 146.79 146.26 C 148.85 146.26 150.93 146.36 152.98 146.08 C 154.95 145.46 156.10 142.96 154.88 141.17 C 153.04 138.75 149.62 139.78 147.03 139.64 L 146.62 139.81 C 144.74 139.70 142.87 139.60 141.00 139.61 C 108.37 139.75 75.71 139.40 43.09 139.78 C 37.20 138.57 31.77 134.19 30.88 128.00 C 29.22 119.73 36.59 111.41 44.96 111.82 C 78.86 111.82 112.77 111.77 146.67 111.84 C 148.76 111.83 150.87 111.93 152.95 111.64 C 154.81 111.19 156.20 108.62 154.91 106.96 C 153.23 104.14 149.38 105.55 146.71 105.21 C 112.47 105.28 78.22 105.19 43.98 105.25 C 33.88 105.20 24.80 113.90 24.18 123.93 M 35.20 125.88 C 56.48 125.92 77.76 125.71 99.03 125.98 C 101.91 126.09 101.67 130.41 98.97 130.52 C 78.13 130.71 57.28 130.44 36.44 130.65 C 38.65 133.02 41.55 135.17 44.98 134.87 C 78.96 134.81 112.96 135.00 146.94 134.77 C 147.03 134.29 147.20 133.32 147.28 132.84 C 147.07 130.58 146.78 127.94 149.22 126.78 C 149.18 125.07 149.25 123.36 149.26 121.65 C 148.15 120.71 147.29 119.55 146.76 118.20 L 147.42 116.58 C 113.62 116.51 79.82 116.58 46.02 116.54 C 44.32 116.53 42.65 116.73 40.99 117.11 C 37.64 118.83 35.46 122.11 35.20 125.88 Z" />
    <path d=" M 63.00 35.15 C 60.70 34.61 60.59 31.36 62.84 30.67 C 66.59 30.43 70.35 30.54 74.10 30.58 C 75.89 30.19 76.87 31.79 77.83 32.96 C 77.36 33.46 76.42 34.48 75.95 34.99 C 71.68 35.55 67.30 35.30 63.00 35.15 Z" />
    <path d=" M 109.35 126.48 C 111.54 125.19 114.48 126.13 116.97 125.84 C 119.57 126.15 122.88 124.98 124.90 127.14 C 125.99 131.74 119.76 130.45 117.02 130.60 C 114.08 130.15 108.93 132.08 108.20 127.95 C 108.49 127.58 109.06 126.84 109.35 126.48 Z" />
  </g>
  <path fill="#20b69f" d=" M 33.70 14.69 C 37.09 13.64 40.64 13.65 44.15 13.62 C 40.09 17.34 36.24 21.63 34.82 27.10 C 32.01 35.80 34.83 45.52 40.98 52.08 C 38.59 52.47 35.42 53.93 33.71 51.37 C 29.16 45.54 27.75 37.70 28.50 30.47 C 29.11 24.54 32.14 19.31 35.32 14.41 C 34.92 14.48 34.10 14.62 33.70 14.69 Z" />
  <g fill="#27d1b3">
    <path d=" M 19.09 33.98 C 19.04 25.33 25.29 16.88 33.70 14.69 C 34.10 14.62 34.92 14.48 35.32 14.41 C 32.14 19.31 29.11 24.54 28.50 30.47 C 27.75 37.70 29.16 45.54 33.71 51.37 C 35.42 53.93 38.59 52.47 40.98 52.08 C 42.04 52.97 43.10 53.86 44.14 54.78 C 39.73 54.65 35.08 55.01 31.02 52.97 C 23.80 49.69 18.81 41.95 19.09 33.98 Z" />
    <path d=" M 136.16 13.75 C 138.85 14.04 142.76 12.70 144.36 15.63 C 145.37 17.16 144.35 19.14 142.97 20.03 C 140.78 20.69 138.44 20.35 136.19 20.38 L 136.18 18.97 C 136.18 17.69 136.17 16.42 136.17 15.14 L 136.16 13.75 Z" />
    <path d=" M 136.17 48.18 C 138.32 48.20 140.50 48.02 142.63 48.39 C 145.38 49.38 145.37 53.56 142.64 54.56 C 140.50 54.93 138.31 54.75 136.14 54.77 C 136.16 52.58 136.17 50.38 136.17 48.18 Z" />
  </g>
  <path fill="#64e0c4" d=" M 41.87 22.95 C 45.08 18.23 50.42 14.29 56.28 14.20 C 63.44 15.88 70.80 14.91 78.07 15.11 C 97.43 15.08 116.80 15.15 136.17 15.14 C 136.17 16.42 136.18 17.69 136.18 18.97 C 126.06 19.13 115.91 18.59 105.80 19.26 C 106.06 19.50 106.57 19.98 106.83 20.23 L 107.28 20.66 C 106.57 21.32 105.82 21.92 105.03 22.49 C 103.48 22.69 101.92 22.82 100.37 22.97 C 99.95 22.13 99.51 21.30 99.07 20.47 L 98.40 19.28 C 92.95 18.66 87.47 19.03 82.01 19.01 C 73.04 18.97 64.07 18.87 55.10 19.05 C 55.31 19.39 55.71 20.05 55.92 20.39 C 52.65 22.03 49.05 23.63 47.18 26.98 C 43.21 33.00 45.12 41.92 51.23 45.75 C 54.61 48.22 58.94 48.30 62.94 48.22 C 87.35 48.15 111.76 48.22 136.17 48.18 C 136.17 50.38 136.16 52.58 136.14 54.77 C 125.45 54.33 114.61 55.71 104.02 53.91 C 98.45 55.25 92.70 54.67 87.04 54.76 C 77.67 54.76 68.30 54.79 58.94 54.77 C 52.29 54.91 45.84 51.40 42.11 45.94 C 37.33 39.27 37.24 29.72 41.87 22.95 Z" />
  <path fill="#6df4d6" d=" M 56.28 14.20 C 57.85 13.94 59.43 13.80 61.03 13.76 C 86.07 13.76 111.11 13.80 136.16 13.75 L 136.17 15.14 C 116.80 15.15 97.43 15.08 78.07 15.11 C 70.80 14.91 63.44 15.88 56.28 14.20 Z" />
  <path fill="#72ffe0" d=" M 55.10 19.05 C 64.07 18.87 73.04 18.97 82.01 19.01 C 87.47 19.03 92.95 18.66 98.40 19.28 L 99.07 20.47 C 84.69 20.21 70.30 20.40 55.92 20.39 C 55.71 20.05 55.31 19.39 55.10 19.05 Z" />
  <path fill="#72ffe0" d=" M 105.80 19.26 C 115.91 18.59 126.06 19.13 136.18 18.97 L 136.19 20.38 C 126.40 20.21 116.61 20.56 106.83 20.23 C 106.57 19.98 106.06 19.50 105.80 19.26 Z" />
  <g fill="#f2eff2">
    <path d=" M 100.37 22.97 C 101.92 22.82 103.48 22.69 105.03 22.49 C 106.01 23.81 106.98 25.50 108.94 25.10 C 118.12 25.09 127.30 25.25 136.48 25.09 C 136.52 26.90 136.54 28.72 136.60 30.54 C 119.75 30.57 102.90 30.56 86.05 30.57 C 84.14 30.11 83.14 31.72 82.12 32.99 C 83.67 36.01 87.15 35.21 89.94 35.29 C 105.48 35.24 121.03 35.28 136.58 35.31 C 136.51 38.03 136.52 40.76 136.54 43.48 C 110.67 43.44 84.80 43.51 58.94 43.47 C 53.92 43.63 49.55 38.98 49.72 34.03 C 49.83 29.25 54.09 24.89 58.95 25.14 C 71.67 25.07 84.38 25.20 97.09 25.10 C 98.60 25.31 99.42 23.83 100.37 22.97 M 127.49 28.58 C 130.10 28.74 132.72 28.74 135.33 28.58 C 133.57 26.23 129.35 26.48 127.49 28.58 M 63.00 35.15 C 67.30 35.30 71.68 35.55 75.95 34.99 C 76.42 34.48 77.36 33.46 77.83 32.96 C 76.87 31.79 75.89 30.19 74.10 30.58 C 70.35 30.54 66.59 30.43 62.84 30.67 C 60.59 31.36 60.70 34.61 63.00 35.15 M 128.01 37.27 C 128.02 38.75 128.03 40.22 128.05 41.70 C 130.27 41.70 132.50 41.69 134.73 41.68 C 134.72 40.23 134.71 38.77 134.70 37.31 C 132.47 37.30 130.24 37.28 128.01 37.27 Z" />
    <path d=" M 35.41 79.11 C 35.82 74.36 40.30 70.49 45.06 70.77 C 58.23 70.73 71.40 70.81 84.57 70.74 C 82.72 72.62 80.83 74.45 78.98 76.32 C 69.28 76.26 59.58 76.27 49.88 76.30 C 48.70 76.18 47.22 76.68 46.95 78.00 C 46.08 79.77 48.35 81.23 49.91 80.89 C 82.34 81.00 114.77 80.74 147.19 81.06 C 147.19 83.78 147.18 86.51 147.20 89.23 C 144.69 89.18 142.16 89.40 139.67 89.00 C 133.63 86.98 127.22 87.83 120.98 87.76 C 99.67 87.82 78.36 87.75 57.06 87.77 C 52.40 87.60 47.70 87.51 43.21 88.93 C 38.49 88.68 34.88 83.68 35.41 79.11 Z" />
    <path d=" M 35.20 125.88 C 35.46 122.11 37.64 118.83 40.99 117.11 C 45.26 118.19 49.67 118.17 54.03 117.99 C 82.09 118.02 110.15 117.97 138.21 118.04 C 138.35 122.97 138.39 127.90 138.34 132.83 C 141.32 132.81 144.30 132.82 147.28 132.84 C 147.20 133.32 147.03 134.29 146.94 134.77 C 112.96 135.00 78.96 134.81 44.98 134.87 C 41.55 135.17 38.65 133.02 36.44 130.65 C 57.28 130.44 78.13 130.71 98.97 130.52 C 101.67 130.41 101.91 126.09 99.03 125.98 C 77.76 125.71 56.48 125.92 35.20 125.88 M 109.35 126.48 C 109.06 126.84 108.49 127.58 108.20 127.95 C 108.93 132.08 114.08 130.15 117.02 130.60 C 119.76 130.45 125.99 131.74 124.90 127.14 C 122.88 124.98 119.57 126.15 116.97 125.84 C 114.48 126.13 111.54 125.19 109.35 126.48 Z" />
  </g>
  <g fill="#e1dde1">
    <path d=" M 127.49 28.58 C 129.35 26.48 133.57 26.23 135.33 28.58 C 132.72 28.74 130.10 28.74 127.49 28.58 Z" />
    <path d=" M 128.01 37.27 C 130.24 37.28 132.47 37.30 134.70 37.31 C 134.71 38.77 134.72 40.23 134.73 41.68 C 132.50 41.69 130.27 41.70 128.05 41.70 C 128.03 40.22 128.02 38.75 128.01 37.27 Z" />
    <path d=" M 138.21 118.04 C 141.06 118.05 143.91 118.09 146.76 118.20 C 147.29 119.55 148.15 120.71 149.26 121.65 C 149.25 123.36 149.18 125.07 149.22 126.78 C 146.78 127.94 147.07 130.58 147.28 132.84 C 144.30 132.82 141.32 132.81 138.34 132.83 C 138.39 127.90 138.35 122.97 138.21 118.04 Z" />
  </g>
  <path fill="#314fc3" d=" M 17.04 61.13 C 21.05 59.28 25.56 59.54 29.87 59.36 C 23.56 64.28 19.10 71.85 19.35 80.01 C 19.38 83.38 19.29 88.35 23.73 88.75 C 24.31 90.04 24.90 91.32 25.49 92.61 C 25.43 93.71 25.32 94.80 25.15 95.88 C 26.44 97.73 28.24 99.11 29.87 100.63 C 25.88 100.45 21.75 100.71 17.96 99.24 C 10.73 96.58 5.43 89.53 4.74 81.88 C 3.85 73.28 9.07 64.48 17.04 61.13 Z" />
  <path fill="#f8c52d" d=" M 98.10 63.83 C 100.06 61.87 102.02 59.91 104.03 58.00 C 110.33 63.94 116.35 70.16 122.46 76.29 C 118.21 76.30 113.95 76.30 109.70 76.26 C 105.80 72.14 101.52 68.37 98.10 63.83 Z" />
  <path fill="#5a75e5" d=" M 112.52 59.49 C 124.13 59.55 135.74 59.56 147.34 59.50 L 147.09 61.14 C 136.85 61.51 126.59 60.87 116.35 61.34 C 116.26 61.78 116.08 62.65 115.98 63.08 C 114.86 61.85 113.72 60.63 112.52 59.49 Z" />
  <path fill="#5169cd" d=" M 24.15 78.97 C 24.37 70.02 31.30 61.84 40.04 59.99 C 42.63 60.66 45.27 61.26 47.96 61.14 C 59.98 60.89 72.00 61.24 84.03 60.95 C 87.17 60.88 90.29 61.37 93.38 61.88 C 91.95 63.32 90.54 64.77 89.09 66.19 C 74.37 66.10 59.65 66.15 44.92 66.15 C 37.39 65.81 30.50 72.48 30.67 80.03 C 30.53 87.58 37.46 94.22 44.99 93.85 C 78.83 93.85 112.67 93.89 146.51 93.82 C 146.65 95.57 146.83 97.31 147.04 99.05 C 116.70 98.90 86.35 99.02 56.01 98.96 C 50.74 98.76 45.46 98.89 40.26 99.80 C 35.28 99.72 31.90 95.57 28.05 93.06 C 27.41 92.95 26.13 92.72 25.49 92.61 C 24.90 91.32 24.31 90.04 23.73 88.75 C 25.49 85.68 23.97 82.25 24.15 78.97 Z" />
  <path fill="#5169cd" d=" M 116.35 61.34 C 126.59 60.87 136.85 61.51 147.09 61.14 C 146.83 62.81 146.60 64.50 146.42 66.18 C 137.25 66.11 128.09 66.14 118.92 66.17 C 117.92 65.15 116.91 64.16 115.98 63.08 C 116.08 62.65 116.26 61.78 116.35 61.34 Z" />
  <path fill="#5d79ec" d=" M 40.04 59.99 C 42.35 59.69 44.67 59.52 47.00 59.53 C 63.20 59.57 79.40 59.53 95.60 59.55 C 94.85 60.31 94.11 61.09 93.38 61.88 C 90.29 61.37 87.17 60.88 84.03 60.95 C 72.00 61.24 59.98 60.89 47.96 61.14 C 45.27 61.26 42.63 60.66 40.04 59.99 Z" />
  <path fill="#3351c5" d=" M 147.34 59.50 C 149.83 59.75 153.34 58.57 154.89 61.16 C 156.28 62.90 154.83 65.31 153.00 65.95 C 150.83 66.27 148.61 66.18 146.42 66.18 C 146.60 64.50 146.83 62.81 147.09 61.14 L 147.34 59.50 Z" />
  <path fill="#3351c5" d=" M 146.51 93.82 C 149.63 93.96 154.54 92.80 155.48 96.95 C 155.27 101.27 150.25 100.58 147.21 100.49 L 147.04 99.05 C 146.83 97.31 146.65 95.57 146.51 93.82 Z" />
  <path fill="#fddd45" d=" M 85.79 76.23 C 89.78 71.98 94.04 68.00 98.10 63.83 C 101.52 68.37 105.80 72.14 109.70 76.26 C 101.73 76.28 93.76 76.36 85.79 76.23 Z" />
  <path fill="#f6f3f6" d=" M 123.59 70.72 C 128.68 70.80 133.78 70.76 138.88 70.77 C 138.61 72.20 138.33 73.63 138.04 75.05 C 141.09 74.93 144.15 74.73 147.20 74.48 C 147.20 74.93 147.20 75.83 147.20 76.27 C 141.16 76.07 135.05 76.63 129.05 76.05 C 127.09 74.42 125.37 72.53 123.59 70.72 Z" />
  <path fill="#e8e4e8" d=" M 138.88 70.77 C 141.65 70.79 144.42 70.76 147.20 70.77 C 147.20 71.70 147.20 73.55 147.20 74.48 C 144.15 74.73 141.09 74.93 138.04 75.05 C 138.33 73.63 138.61 72.20 138.88 70.77 Z" />
  <path fill="#fff" d=" M 43.21 88.93 C 47.70 87.51 52.40 87.60 57.06 87.77 C 78.36 87.75 99.67 87.82 120.98 87.76 C 127.22 87.83 133.63 86.98 139.67 89.00 C 136.45 89.33 133.21 89.22 129.98 89.22 C 104.31 89.22 78.64 89.22 52.96 89.22 C 49.71 89.20 46.44 89.38 43.21 88.93 Z" />
  <path fill="#fff" d=" M 40.99 117.11 C 42.65 116.73 44.32 116.53 46.02 116.54 C 79.82 116.58 113.62 116.51 147.42 116.58 L 146.76 118.20 C 143.91 118.09 141.06 118.05 138.21 118.04 C 110.15 117.97 82.09 118.02 54.03 117.99 C 49.67 118.17 45.26 118.19 40.99 117.11 Z" />
  <path fill="#5e7aee" d=" M 40.26 99.80 C 45.46 98.89 50.74 98.76 56.01 98.96 C 86.35 99.02 116.70 98.90 147.04 99.05 L 147.21 100.49 C 116.14 100.39 85.08 100.48 54.01 100.45 C 49.42 100.36 44.77 100.87 40.26 99.80 Z" />
  <path fill="#31a7fb" d=" M 16.25 107.25 C 20.41 105.02 25.23 105.23 29.80 105.20 C 29.53 105.49 29.00 106.08 28.73 106.37 L 28.23 106.37 C 25.06 106.46 21.10 105.97 18.92 108.82 C 13.59 116.53 12.55 126.84 15.53 135.66 C 16.92 139.43 19.29 142.72 21.48 146.05 C 13.92 144.40 7.33 138.63 5.38 131.05 C 2.67 121.84 7.60 111.29 16.25 107.25 Z" />
  <path fill="#31a7fb" d=" M 146.71 105.21 C 149.38 105.55 153.23 104.14 154.91 106.96 C 156.20 108.62 154.81 111.19 152.95 111.64 C 150.87 111.93 148.76 111.83 146.67 111.84 C 146.62 109.63 146.69 107.42 146.71 105.21 Z" />
  <path fill="#64b9fc" d=" M 24.18 123.93 C 24.80 113.90 33.88 105.20 43.98 105.25 C 78.22 105.19 112.47 105.28 146.71 105.21 C 146.69 107.42 146.62 109.63 146.67 111.84 C 112.77 111.77 78.86 111.82 44.96 111.82 C 36.59 111.41 29.22 119.73 30.88 128.00 C 31.77 134.19 37.20 138.57 43.09 139.78 C 42.45 140.04 41.16 140.54 40.51 140.80 C 46.66 141.21 52.82 140.97 58.98 141.03 C 86.66 141.05 114.35 140.96 142.03 141.10 C 143.67 141.18 145.16 140.45 146.62 139.81 L 147.03 139.64 C 146.97 141.84 146.87 144.05 146.79 146.26 C 115.19 146.24 83.60 146.25 52.00 146.25 C 47.00 146.19 41.76 146.76 37.02 144.79 C 28.81 141.62 23.21 132.74 24.18 123.93 Z" />
  <path fill="#1c96f9" d=" M 18.92 108.82 C 21.10 105.97 25.06 106.46 28.23 106.37 C 22.08 112.04 18.34 120.48 19.59 128.91 C 20.31 135.90 24.53 141.93 29.79 146.35 C 27.02 146.27 24.25 146.19 21.48 146.05 C 19.29 142.72 16.92 139.43 15.53 135.66 C 12.55 126.84 13.59 116.53 18.92 108.82 Z" />
  <path fill="#72d3ff" d=" M 40.51 140.80 C 41.16 140.54 42.45 140.04 43.09 139.78 C 75.71 139.40 108.37 139.75 141.00 139.61 C 142.87 139.60 144.74 139.70 146.62 139.81 C 145.16 140.45 143.67 141.18 142.03 141.10 C 114.35 140.96 86.66 141.05 58.98 141.03 C 52.82 140.97 46.66 141.21 40.51 140.80 Z" />
  <path fill="#1c96fa" d=" M 147.03 139.64 C 149.62 139.78 153.04 138.75 154.88 141.17 C 156.10 142.96 154.95 145.46 152.98 146.08 C 150.93 146.36 148.85 146.26 146.79 146.26 C 146.87 144.05 146.97 141.84 147.03 139.64 Z" />
</svg>
