<svg width="160px" height="160px" viewBox="0 0 160 160" xmlns="http://www.w3.org/2000/svg">
  <g fill="#000000">
    <path d=" M 73.67 22.64 C 75.52 21.15 77.43 19.24 79.97 19.23 C 82.30 19.18 84.12 20.84 85.83 22.20 C 94.87 30.14 104.05 37.94 113.10 45.88 C 117.74 50.49 125.53 45.30 130.13 50.27 C 127.74 52.95 124.18 52.77 120.92 52.73 C 123.31 54.79 126.18 56.52 127.84 59.30 C 128.40 63.59 123.89 66.32 120.84 68.49 C 120.81 70.38 120.79 72.27 120.78 74.16 C 132.14 74.17 143.50 74.14 154.87 74.17 C 151.46 67.04 148.15 59.87 144.82 52.71 C 141.10 52.42 136.44 53.86 133.88 50.28 C 136.57 46.89 141.26 47.79 145.03 48.08 C 148.03 48.23 149.35 51.24 150.48 53.56 C 153.58 60.46 156.89 67.25 160.00 74.14 L 160.00 76.24 C 158.87 77.38 157.65 78.44 156.42 79.48 C 156.47 97.99 156.38 116.51 156.48 135.02 C 156.45 136.64 156.41 138.27 156.10 139.87 C 154.96 140.77 153.42 140.66 152.05 140.77 C 105.37 140.76 58.69 140.70 12.01 140.79 C 9.31 140.65 6.38 141.23 3.89 139.94 C 3.36 136.66 3.55 133.32 3.55 130.02 C 3.62 113.13 3.51 96.24 3.60 79.36 C 2.40 78.42 1.20 77.48 0.00 76.54 L 0.00 74.20 C 3.08 67.26 6.43 60.45 9.53 53.53 C 10.67 51.22 11.98 48.19 14.99 48.11 C 24.34 47.48 33.74 48.25 43.10 47.83 C 44.87 47.85 46.12 46.44 47.42 45.45 C 56.11 37.78 64.98 30.31 73.67 22.64 M 73.78 28.75 C 61.53 39.35 49.27 49.96 36.98 60.51 C 37.63 61.30 38.30 62.09 38.96 62.88 C 41.99 60.28 44.80 57.38 48.12 55.15 C 48.92 55.19 50.53 55.27 51.34 55.31 C 51.72 59.96 46.44 61.81 43.79 64.80 C 43.81 66.78 43.82 68.77 43.84 70.75 C 43.79 92.55 43.84 114.34 43.82 136.13 C 46.83 136.13 49.84 136.13 52.85 136.13 C 52.82 125.93 52.83 115.73 52.84 105.53 C 48.61 102.54 48.34 94.68 53.72 92.80 C 62.51 89.22 71.02 84.85 80.00 81.83 C 86.43 83.71 92.35 87.02 98.59 89.46 C 102.43 91.21 106.61 92.43 109.83 95.27 C 110.13 97.75 110.17 100.25 109.89 102.73 C 108.97 103.61 108.05 104.48 107.12 105.35 C 107.21 115.61 107.16 125.87 107.15 136.14 C 107.77 136.14 109.00 136.13 109.62 136.13 C 111.81 136.13 113.99 136.13 116.18 136.13 C 116.20 112.36 116.14 88.59 116.21 64.82 C 104.21 54.27 91.98 43.98 80.01 33.41 C 72.97 39.61 65.87 45.76 58.71 51.82 C 57.54 53.12 55.76 52.33 54.30 52.25 C 54.89 50.61 54.90 48.65 56.53 47.61 C 63.92 41.35 71.12 34.84 78.60 28.68 C 80.10 27.12 81.76 28.96 82.98 29.89 C 95.64 40.93 108.44 51.81 121.07 62.89 C 121.71 62.08 122.36 61.27 123.01 60.46 C 108.56 48.35 94.64 35.57 80.02 23.69 C 77.75 25.13 75.82 27.01 73.78 28.75 M 15.16 52.66 C 11.79 59.83 8.52 67.05 5.07 74.18 C 16.45 74.13 27.83 74.17 39.21 74.16 C 39.20 72.21 39.19 70.25 39.18 68.30 C 36.08 66.76 33.26 64.23 32.01 60.95 C 32.04 56.92 36.74 55.25 39.11 52.62 C 31.13 52.65 23.14 52.60 15.16 52.66 M 8.29 78.78 C 8.29 80.87 8.27 82.95 8.27 85.04 C 18.58 85.06 28.89 85.16 39.19 84.98 C 39.19 82.92 39.19 80.85 39.19 78.79 C 28.89 78.80 18.59 78.80 8.29 78.78 M 120.80 78.79 C 120.80 80.88 120.80 82.98 120.81 85.07 C 131.11 85.07 141.41 85.12 151.70 84.92 C 151.70 82.88 151.71 80.83 151.72 78.79 C 141.42 78.80 131.11 78.80 120.80 78.79 M 54.35 97.68 C 54.43 98.53 54.58 100.22 54.66 101.07 C 71.55 101.09 88.44 101.09 105.32 101.07 C 105.41 100.23 105.59 98.55 105.68 97.71 C 97.20 93.80 88.55 90.28 80.01 86.50 C 71.48 90.29 62.83 93.80 54.35 97.68 M 144.07 89.71 C 144.14 92.45 144.14 95.19 144.13 97.94 C 146.65 97.88 149.18 97.86 151.70 97.89 C 151.67 95.16 151.67 92.43 151.72 89.70 C 149.17 89.71 146.62 89.71 144.07 89.71 M 8.22 89.69 C 8.27 92.46 8.27 95.24 8.30 98.02 C 10.83 97.93 13.35 97.92 15.88 97.92 C 15.86 95.18 15.86 92.44 15.92 89.70 C 13.36 89.69 10.79 89.69 8.22 89.69 M 20.55 89.68 C 20.57 92.46 20.57 95.25 20.59 98.04 C 22.68 97.96 24.76 97.94 26.85 97.90 C 26.83 95.17 26.82 92.43 26.88 89.70 C 24.77 89.69 22.66 89.69 20.55 89.68 M 31.50 89.68 C 31.53 92.45 31.53 95.21 31.55 97.98 C 34.10 97.88 36.65 97.85 39.20 97.85 C 39.18 95.14 39.18 92.43 39.20 89.71 C 36.63 89.72 34.07 89.71 31.50 89.68 M 120.80 97.93 C 123.35 97.92 125.90 97.93 128.45 98.00 C 128.47 95.23 128.47 92.45 128.50 89.68 C 125.93 89.69 123.36 89.69 120.79 89.69 C 120.80 92.44 120.80 95.18 120.80 97.93 M 133.12 89.70 C 133.18 92.43 133.17 95.16 133.15 97.90 C 135.23 97.94 137.32 97.96 139.41 98.04 C 139.43 95.25 139.43 92.46 139.45 89.68 C 137.34 89.69 135.23 89.69 133.12 89.70 M 7.86 102.70 C 8.01 103.37 8.30 104.70 8.45 105.37 C 18.71 105.69 29.00 105.45 39.27 105.43 C 39.24 104.51 39.20 103.60 39.17 102.68 C 28.73 102.67 18.30 102.60 7.86 102.70 M 120.78 102.65 C 120.78 103.36 120.78 104.80 120.78 105.51 C 131.02 105.39 141.27 105.73 151.50 105.33 C 151.64 104.68 151.92 103.37 152.06 102.72 C 141.63 102.59 131.21 102.69 120.78 102.65 M 57.60 105.70 C 57.55 115.85 57.58 125.99 57.57 136.14 C 58.31 136.14 59.81 136.14 60.56 136.14 C 61.22 131.92 58.62 126.15 63.00 123.41 C 66.79 126.55 64.89 131.82 65.23 136.07 C 75.06 136.20 84.90 136.11 94.73 136.12 C 94.64 125.98 94.88 115.82 94.56 105.68 C 84.85 105.78 75.15 105.78 65.44 105.68 C 65.32 109.44 65.26 113.20 65.26 116.96 C 64.68 117.46 63.51 118.47 62.93 118.97 C 62.38 118.49 61.29 117.52 60.75 117.03 C 60.25 113.29 60.64 109.47 60.52 105.70 C 59.79 105.70 58.33 105.70 57.60 105.70 M 99.49 105.70 C 99.44 115.85 99.47 125.99 99.45 136.14 C 100.20 136.14 101.69 136.14 102.43 136.14 C 102.42 125.99 102.45 115.85 102.40 105.70 C 101.67 105.70 100.21 105.70 99.49 105.70 M 8.25 110.21 C 8.24 112.01 8.23 113.80 8.22 115.61 C 18.56 115.58 28.89 115.63 39.23 115.56 C 39.21 113.78 39.19 112.01 39.18 110.23 C 28.87 110.22 18.56 110.21 8.25 110.21 M 120.82 110.19 C 120.80 111.98 120.78 113.78 120.75 115.57 C 131.08 115.63 141.42 115.59 151.75 115.58 C 151.74 113.80 151.73 112.02 151.73 110.24 C 141.42 110.20 131.12 110.24 120.82 110.19 M 8.23 120.30 C 8.27 123.05 8.28 125.80 8.21 128.55 C 10.79 128.57 13.36 128.56 15.94 128.54 C 15.86 125.79 15.87 123.05 15.90 120.30 C 13.35 120.29 10.79 120.29 8.23 120.30 M 20.54 120.31 C 20.57 123.07 20.57 125.83 20.55 128.59 C 22.67 128.57 24.79 128.56 26.91 128.53 C 26.82 125.78 26.83 123.03 26.86 120.29 C 24.75 120.29 22.64 120.29 20.54 120.31 M 31.51 120.28 C 31.53 123.04 31.53 125.80 31.50 128.57 C 34.06 128.53 36.63 128.51 39.20 128.52 C 39.18 125.80 39.18 123.08 39.20 120.36 C 36.64 120.36 34.07 120.33 31.51 120.28 M 120.80 120.28 C 120.80 123.04 120.80 125.80 120.79 128.57 C 123.36 128.56 125.93 128.56 128.50 128.57 C 128.47 125.81 128.47 123.06 128.50 120.30 C 125.93 120.30 123.36 120.30 120.80 120.28 M 133.12 120.32 C 133.17 123.05 133.18 125.79 133.10 128.53 C 135.21 128.56 137.33 128.57 139.45 128.59 C 139.42 125.81 139.44 123.04 139.43 120.26 C 137.33 120.29 135.23 120.29 133.12 120.32 M 144.09 120.30 C 144.13 123.05 144.13 125.81 144.09 128.56 C 146.63 128.53 149.18 128.52 151.73 128.53 C 151.67 125.80 151.67 123.07 151.73 120.34 C 149.18 120.35 146.64 120.33 144.09 120.30 M 7.92 133.33 C 8.06 133.97 8.34 135.27 8.48 135.91 C 18.73 136.31 29.05 136.26 39.31 135.87 C 39.25 135.02 39.20 134.17 39.15 133.32 C 28.74 133.28 18.33 133.18 7.92 133.33 M 120.79 133.24 C 120.79 133.97 120.79 135.41 120.79 136.13 C 131.04 136.15 141.28 136.10 151.53 136.15 C 151.64 135.22 151.76 134.28 151.87 133.35 C 141.51 133.19 131.15 133.30 120.79 133.24 Z" />
    <path d=" M 72.15 47.12 C 77.06 44.59 82.95 44.60 87.87 47.11 C 89.12 48.22 90.39 49.30 91.66 50.38 C 96.36 56.29 96.35 65.48 90.79 70.83 C 85.01 77.07 74.12 76.77 68.68 70.25 C 63.57 64.81 63.84 56.01 68.40 50.32 C 69.66 49.26 70.91 48.20 72.15 47.12 M 76.34 50.46 C 69.50 52.75 67.18 62.50 72.48 67.50 C 77.34 73.11 87.50 70.91 89.75 63.89 C 93.22 56.05 84.20 47.02 76.34 50.46 Z" />
    <path d=" M 77.84 53.11 C 78.60 51.18 81.39 51.21 82.16 53.12 C 82.39 54.62 82.32 56.13 82.33 57.64 C 84.12 58.04 86.41 57.92 87.10 60.03 C 86.77 61.08 86.20 62.50 84.89 62.51 C 82.64 62.54 80.06 63.16 78.09 61.78 C 77.28 58.99 77.59 55.97 77.84 53.11 Z" />
    <path d=" M 74.19 93.08 C 77.70 92.32 81.40 92.56 84.97 92.86 C 87.03 93.16 87.49 95.82 85.84 97.03 C 82.29 97.66 78.62 97.52 75.05 97.21 C 73.02 97.14 72.48 94.09 74.19 93.08 Z" />
  </g>
  <g fill="#fc9542">
    <path d=" M 73.78 28.75 C 75.82 27.01 77.75 25.13 80.02 23.69 C 94.64 35.57 108.56 48.35 123.01 60.46 C 122.36 61.27 121.71 62.08 121.07 62.89 C 108.44 51.81 95.64 40.93 82.98 29.89 C 81.76 28.96 80.10 27.12 78.60 28.68 C 71.12 34.84 63.92 41.35 56.53 47.61 C 54.90 48.65 54.89 50.61 54.30 52.25 C 53.36 53.32 52.35 54.31 51.34 55.31 C 50.53 55.27 48.92 55.19 48.12 55.15 C 44.80 57.38 41.99 60.28 38.96 62.88 C 38.30 62.09 37.63 61.30 36.98 60.51 C 49.27 49.96 61.53 39.35 73.78 28.75 Z" />
    <path d=" M 130.13 50.27 C 131.37 50.28 132.62 50.28 133.88 50.28 C 136.44 53.86 141.10 52.42 144.82 52.71 C 148.15 59.87 151.46 67.04 154.87 74.17 C 143.50 74.14 132.14 74.17 120.78 74.16 C 120.79 72.27 120.81 70.38 120.84 68.49 C 123.89 66.32 128.40 63.59 127.84 59.30 C 126.18 56.52 123.31 54.79 120.92 52.73 C 124.18 52.77 127.74 52.95 130.13 50.27 Z" />
    <path d=" M 15.16 52.66 C 23.14 52.60 31.13 52.65 39.11 52.62 C 36.74 55.25 32.04 56.92 32.01 60.95 C 33.26 64.23 36.08 66.76 39.18 68.30 C 39.19 70.25 39.20 72.21 39.21 74.16 C 27.83 74.17 16.45 74.13 5.07 74.18 C 8.52 67.05 11.79 59.83 15.16 52.66 Z" />
    <path d=" M 54.35 97.68 C 62.83 93.80 71.48 90.29 80.01 86.50 C 88.55 90.28 97.20 93.80 105.68 97.71 C 105.59 98.55 105.41 100.23 105.32 101.07 C 88.44 101.09 71.55 101.09 54.66 101.07 C 54.58 100.22 54.43 98.53 54.35 97.68 M 74.19 93.08 C 72.48 94.09 73.02 97.14 75.05 97.21 C 78.62 97.52 82.29 97.66 85.84 97.03 C 87.49 95.82 87.03 93.16 84.97 92.86 C 81.40 92.56 77.70 92.32 74.19 93.08 Z" />
    <path d=" M 7.86 102.70 C 18.30 102.60 28.73 102.67 39.17 102.68 C 39.20 103.60 39.24 104.51 39.27 105.43 C 29.00 105.45 18.71 105.69 8.45 105.37 C 8.30 104.70 8.01 103.37 7.86 102.70 Z" />
    <path d=" M 120.78 102.65 C 131.21 102.69 141.63 102.59 152.06 102.72 C 151.92 103.37 151.64 104.68 151.50 105.33 C 141.27 105.73 131.02 105.39 120.78 105.51 C 120.78 104.80 120.78 103.36 120.78 102.65 Z" />
    <path d=" M 7.92 133.33 C 18.33 133.18 28.74 133.28 39.15 133.32 C 39.20 134.17 39.25 135.02 39.31 135.87 C 29.05 136.26 18.73 136.31 8.48 135.91 C 8.34 135.27 8.06 133.97 7.92 133.33 Z" />
    <path d=" M 120.79 133.24 C 131.15 133.30 141.51 133.19 151.87 133.35 C 151.76 134.28 151.64 135.22 151.53 136.15 C 141.28 136.10 131.04 136.15 120.79 136.13 C 120.79 135.41 120.79 133.97 120.79 133.24 Z" />
  </g>
  <g fill="#2fa6fc">
    <path d=" M 58.71 51.82 C 65.87 45.76 72.97 39.61 80.01 33.41 C 91.98 43.98 104.21 54.27 116.21 64.82 C 116.14 88.59 116.20 112.36 116.18 136.13 C 113.99 136.13 111.81 136.13 109.62 136.13 C 109.64 125.00 109.16 113.85 109.89 102.73 C 110.17 100.25 110.13 97.75 109.83 95.27 C 108.94 86.17 109.87 77.02 109.43 67.91 C 109.58 65.11 107.25 63.31 105.38 61.65 C 100.84 57.85 96.50 53.81 91.66 50.38 C 90.39 49.30 89.12 48.22 87.87 47.11 C 85.36 44.55 82.76 42.07 80.00 39.78 C 77.25 42.09 74.66 44.56 72.15 47.12 C 70.91 48.20 69.66 49.26 68.40 50.32 C 59.77 56.58 52.37 64.35 43.84 70.75 C 43.82 68.77 43.81 66.78 43.79 64.80 C 46.44 61.81 51.72 59.96 51.34 55.31 C 52.35 54.31 53.36 53.32 54.30 52.25 C 55.76 52.33 57.54 53.12 58.71 51.82 Z" />
    <path d=" M 8.29 78.78 C 18.59 78.80 28.89 78.80 39.19 78.79 C 39.19 80.85 39.19 82.92 39.19 84.98 C 28.89 85.16 18.58 85.06 8.27 85.04 C 8.27 82.95 8.29 80.87 8.29 78.78 Z" />
    <path d=" M 120.80 78.79 C 131.11 78.80 141.42 78.80 151.72 78.79 C 151.71 80.83 151.70 82.88 151.70 84.92 C 141.41 85.12 131.11 85.07 120.81 85.07 C 120.80 82.98 120.80 80.88 120.80 78.79 Z" />
    <path d=" M 8.25 110.21 C 18.56 110.21 28.87 110.22 39.18 110.23 C 39.19 112.01 39.21 113.78 39.23 115.56 C 28.89 115.63 18.56 115.58 8.22 115.61 C 8.23 113.80 8.24 112.01 8.25 110.21 Z" />
    <path d=" M 120.82 110.19 C 131.12 110.24 141.42 110.20 151.73 110.24 C 151.73 112.02 151.74 113.80 151.75 115.58 C 141.42 115.59 131.08 115.63 120.75 115.57 C 120.78 113.78 120.80 111.98 120.82 110.19 Z" />
  </g>
  <g fill="#64b9fc">
    <path d=" M 72.15 47.12 C 74.66 44.56 77.25 42.09 80.00 39.78 C 82.76 42.07 85.36 44.55 87.87 47.11 C 82.95 44.60 77.06 44.59 72.15 47.12 Z" />
    <path d=" M 43.84 70.75 C 52.37 64.35 59.77 56.58 68.40 50.32 C 63.84 56.01 63.57 64.81 68.68 70.25 C 74.12 76.77 85.01 77.07 90.79 70.83 C 96.35 65.48 96.36 56.29 91.66 50.38 C 96.50 53.81 100.84 57.85 105.38 61.65 C 107.25 63.31 109.58 65.11 109.43 67.91 C 109.87 77.02 108.94 86.17 109.83 95.27 C 106.61 92.43 102.43 91.21 98.59 89.46 C 92.35 87.02 86.43 83.71 80.00 81.83 C 71.02 84.85 62.51 89.22 53.72 92.80 C 48.34 94.68 48.61 102.54 52.84 105.53 C 52.83 115.73 52.82 125.93 52.85 136.13 C 49.84 136.13 46.83 136.13 43.82 136.13 C 43.84 114.34 43.79 92.55 43.84 70.75 Z" />
    <path d=" M 107.12 105.35 C 108.05 104.48 108.97 103.61 109.89 102.73 C 109.16 113.85 109.64 125.00 109.62 136.13 C 109.00 136.13 107.77 136.14 107.15 136.14 C 107.16 125.87 107.21 115.61 107.12 105.35 Z" />
  </g>
  <g fill="#ddedf9">
    <path d=" M 76.34 50.46 C 84.20 47.02 93.22 56.05 89.75 63.89 C 87.50 70.91 77.34 73.11 72.48 67.50 C 67.18 62.50 69.50 52.75 76.34 50.46 M 77.84 53.11 C 77.59 55.97 77.28 58.99 78.09 61.78 C 80.06 63.16 82.64 62.54 84.89 62.51 C 86.20 62.50 86.77 61.08 87.10 60.03 C 86.41 57.92 84.12 58.04 82.33 57.64 C 82.32 56.13 82.39 54.62 82.16 53.12 C 81.39 51.21 78.60 51.18 77.84 53.11 Z" />
    <path d=" M 144.07 89.71 C 146.62 89.71 149.17 89.71 151.72 89.70 C 151.67 92.43 151.67 95.16 151.70 97.89 C 149.18 97.86 146.65 97.88 144.13 97.94 C 144.14 95.19 144.14 92.45 144.07 89.71 Z" />
    <path d=" M 8.22 89.69 C 10.79 89.69 13.36 89.69 15.92 89.70 C 15.86 92.44 15.86 95.18 15.88 97.92 C 13.35 97.92 10.83 97.93 8.30 98.02 C 8.27 95.24 8.27 92.46 8.22 89.69 Z" />
    <path d=" M 20.55 89.68 C 22.66 89.69 24.77 89.69 26.88 89.70 C 26.82 92.43 26.83 95.17 26.85 97.90 C 24.76 97.94 22.68 97.96 20.59 98.04 C 20.57 95.25 20.57 92.46 20.55 89.68 Z" />
    <path d=" M 31.50 89.68 C 34.07 89.71 36.63 89.72 39.20 89.71 C 39.18 92.43 39.18 95.14 39.20 97.85 C 36.65 97.85 34.10 97.88 31.55 97.98 C 31.53 95.21 31.53 92.45 31.50 89.68 Z" />
    <path d=" M 120.80 97.93 C 120.80 95.18 120.80 92.44 120.79 89.69 C 123.36 89.69 125.93 89.69 128.50 89.68 C 128.47 92.45 128.47 95.23 128.45 98.00 C 125.90 97.93 123.35 97.92 120.80 97.93 Z" />
    <path d=" M 133.12 89.70 C 135.23 89.69 137.34 89.69 139.45 89.68 C 139.43 92.46 139.43 95.25 139.41 98.04 C 137.32 97.96 135.23 97.94 133.15 97.90 C 133.17 95.16 133.18 92.43 133.12 89.70 Z" />
    <path d=" M 57.60 105.70 C 58.33 105.70 59.79 105.70 60.52 105.70 C 60.64 109.47 60.25 113.29 60.75 117.03 C 61.29 117.52 62.38 118.49 62.93 118.97 C 62.95 120.45 62.97 121.93 63.00 123.41 C 58.62 126.15 61.22 131.92 60.56 136.14 C 59.81 136.14 58.31 136.14 57.57 136.14 C 57.58 125.99 57.55 115.85 57.60 105.70 Z" />
    <path d=" M 99.49 105.70 C 100.21 105.70 101.67 105.70 102.40 105.70 C 102.45 115.85 102.42 125.99 102.43 136.14 C 101.69 136.14 100.20 136.14 99.45 136.14 C 99.47 125.99 99.44 115.85 99.49 105.70 Z" />
    <path d=" M 8.23 120.30 C 10.79 120.29 13.35 120.29 15.90 120.30 C 15.87 123.05 15.86 125.79 15.94 128.54 C 13.36 128.56 10.79 128.57 8.21 128.55 C 8.28 125.80 8.27 123.05 8.23 120.30 Z" />
    <path d=" M 20.54 120.31 C 22.64 120.29 24.75 120.29 26.86 120.29 C 26.83 123.03 26.82 125.78 26.91 128.53 C 24.79 128.56 22.67 128.57 20.55 128.59 C 20.57 125.83 20.57 123.07 20.54 120.31 Z" />
    <path d=" M 31.51 120.28 C 34.07 120.33 36.64 120.36 39.20 120.36 C 39.18 123.08 39.18 125.80 39.20 128.52 C 36.63 128.51 34.06 128.53 31.50 128.57 C 31.53 125.80 31.53 123.04 31.51 120.28 Z" />
    <path d=" M 120.80 120.28 C 123.36 120.30 125.93 120.30 128.50 120.30 C 128.47 123.06 128.47 125.81 128.50 128.57 C 125.93 128.56 123.36 128.56 120.79 128.57 C 120.80 125.80 120.80 123.04 120.80 120.28 Z" />
    <path d=" M 133.12 120.32 C 135.23 120.29 137.33 120.29 139.43 120.26 C 139.44 123.04 139.42 125.81 139.45 128.59 C 137.33 128.57 135.21 128.56 133.10 128.53 C 133.18 125.79 133.17 123.05 133.12 120.32 Z" />
    <path d=" M 144.09 120.30 C 146.64 120.33 149.18 120.35 151.73 120.34 C 151.67 123.07 151.67 125.80 151.73 128.53 C 149.18 128.52 146.63 128.53 144.09 128.56 C 144.13 125.81 144.13 123.05 144.09 120.30 Z" />
  </g>
  <path fill="#2944ae" d=" M 65.26 116.96 C 65.26 113.20 65.32 109.44 65.44 105.68 C 75.15 105.78 84.85 105.78 94.56 105.68 C 94.88 115.82 94.64 125.98 94.73 136.12 C 84.90 136.11 75.06 136.20 65.23 136.07 C 64.89 131.82 66.79 126.55 63.00 123.41 C 62.97 121.93 62.95 120.45 62.93 118.97 C 63.51 118.47 64.68 117.46 65.26 116.96 Z" />
</svg>