<svg width="160px" height="160px" viewBox="0 0 160 160" xmlns="http://www.w3.org/2000/svg" fill="#000">
  <path d=" M 0.00 27.82 C 0.74 23.67 4.70 20.27 8.93 20.30 C 42.31 20.33 75.70 20.30 109.08 20.31 C 111.86 20.23 114.25 22.05 116.06 23.99 C 119.95 28.87 116.82 37.75 110.10 37.62 C 76.10 37.75 42.09 37.68 8.08 37.65 C 4.18 37.82 0.93 34.88 0.00 31.20 L 0.00 27.82 Z" />
  <path d=" M 117.69 63.01 C 117.32 58.41 121.39 54.25 125.99 54.49 C 130.29 54.20 134.47 57.75 134.46 62.14 C 134.55 78.10 134.53 94.07 134.46 110.04 C 138.71 106.08 142.47 101.59 146.95 97.89 C 152.11 94.07 159.94 98.81 159.76 104.98 C 159.87 108.91 156.55 111.48 154.06 114.00 C 146.59 121.56 138.89 128.89 131.65 136.67 C 129.35 138.79 125.76 139.21 122.89 138.09 C 120.32 137.20 118.89 134.71 117.03 132.90 C 109.63 125.38 102.04 118.03 94.69 110.45 C 91.96 107.75 91.71 103.07 94.12 100.09 C 96.51 96.62 101.68 95.34 105.21 97.85 C 109.83 101.36 113.24 106.24 117.84 109.77 C 117.49 94.19 117.77 78.60 117.69 63.01 Z" />
  <path d=" M 0.00 69.86 C 0.63 65.57 4.67 62.53 8.95 62.89 C 33.31 62.84 57.67 62.93 82.04 62.85 C 84.57 62.90 87.35 62.96 89.45 64.59 C 93.84 67.97 93.51 75.85 88.61 78.60 C 86.63 79.83 84.21 79.68 81.98 79.75 C 57.30 79.65 32.62 79.79 7.94 79.68 C 4.08 79.82 0.93 76.84 0.00 73.24 L 0.00 69.86 Z" />
  <path d=" M 0.00 111.86 C 0.65 107.58 4.67 104.60 8.93 104.92 C 25.66 104.90 42.40 104.81 59.13 104.97 C 64.75 104.70 68.72 110.81 66.95 115.95 C 66.07 119.46 62.57 121.92 58.98 121.73 C 42.01 121.77 25.03 121.79 8.06 121.72 C 4.17 121.87 0.92 118.93 0.00 115.26 L 0.00 111.86 Z" />
</svg>
