<?xml version="1.0" encoding="UTF-8" ?>
<!DOCTYPE svg PUBLIC "-//W3C//DTD SVG 1.1//EN" "http://www.w3.org/Graphics/SVG/1.1/DTD/svg11.dtd">
<svg width="160pt" height="160pt" viewBox="0 0 160 160" version="1.1" xmlns="http://www.w3.org/2000/svg">
<g id="#ffffffff">
<path fill="#ffffff" opacity="1.00" d=" M 126.41 12.86 C 131.60 8.35 135.68 1.39 143.08 0.44 C 151.22 -0.99 159.67 5.73 159.89 14.03 C 160.33 18.54 158.44 23.01 155.14 26.06 C 152.45 28.51 150.14 31.45 147.29 33.68 C 140.42 26.65 133.54 19.62 126.41 12.86 Z" />
<path fill="#ffffff" opacity="1.00" d=" M 73.64 65.70 C 89.08 50.10 104.75 34.71 120.14 19.06 C 127.22 26.01 134.11 33.15 141.25 40.03 C 125.59 55.46 110.15 71.13 94.55 86.62 C 93.13 88.06 90.95 88.06 89.10 88.52 C 83.35 89.54 77.68 91.00 71.90 91.80 C 70.23 92.23 68.01 90.98 68.30 89.07 C 69.26 82.87 70.75 76.75 71.89 70.57 C 72.32 68.91 72.29 66.95 73.64 65.70 Z" />
<path fill="#ffffff" opacity="1.00" d=" M 18.40 37.65 C 19.73 30.33 26.62 24.63 33.95 24.07 C 39.29 23.66 44.65 23.97 50.00 23.92 C 54.67 23.87 59.33 23.87 64.00 23.92 C 67.00 23.87 70.00 23.87 73.00 23.92 C 77.66 24.42 83.38 22.37 87.22 25.83 C 90.93 29.14 88.00 36.13 83.04 35.74 C 67.32 35.77 51.59 35.73 35.86 35.75 C 32.55 35.62 29.42 38.58 29.58 41.93 C 29.58 69.28 29.61 96.63 29.57 123.98 C 29.11 127.54 32.40 130.99 35.98 130.64 C 63.33 130.64 90.68 130.63 118.03 130.64 C 121.63 131.04 124.95 127.56 124.46 123.99 C 124.44 108.34 124.44 92.70 124.45 77.05 C 124.40 73.72 127.78 71.00 131.01 71.37 C 134.14 71.73 136.72 74.85 136.34 78.02 C 136.31 93.67 136.34 109.31 136.33 124.96 C 136.25 132.39 130.90 139.95 123.51 141.55 C 123.57 141.84 123.69 142.42 123.75 142.71 C 97.19 143.06 70.62 142.76 44.06 142.86 C 39.43 142.82 34.80 143.00 30.18 142.68 L 30.60 141.62 C 24.72 140.23 19.81 135.12 18.49 129.25 C 18.24 129.34 17.73 129.54 17.48 129.63 C 17.32 127.76 17.15 125.89 17.14 124.01 C 17.14 97.02 17.14 70.03 17.13 43.04 C 17.14 41.08 17.26 39.13 17.39 37.18 L 18.40 37.65 Z" />
</g>
</svg>
