<svg width="160px" height="160px" viewBox="0 0 160 160" xmlns="http://www.w3.org/2000/svg" fill="#6b7280">
  <path d=" M 75.77 22.72 C 84.88 20.29 94.60 22.11 103.09 25.84 C 117.30 32.16 127.40 46.43 128.91 61.88 C 146.47 64.90 159.94 81.63 160.00 99.31 L 160.00 100.70 C 159.72 111.84 154.42 122.73 145.79 129.78 C 139.91 134.67 132.48 137.60 124.90 138.39 C 113.49 138.51 102.08 138.40 90.67 138.43 C 90.68 126.79 90.70 115.15 90.66 103.52 C 94.62 103.44 98.60 103.71 102.56 103.43 C 104.95 103.26 106.63 100.02 104.97 98.10 C 98.26 88.48 91.21 79.09 84.43 69.51 C 83.25 67.95 82.09 66.01 79.96 65.73 C 77.62 66.12 76.45 68.34 75.14 70.05 C 68.49 79.47 61.54 88.69 54.97 98.16 C 53.30 100.05 55.04 103.27 57.38 103.42 C 61.35 103.71 65.33 103.44 69.31 103.51 C 69.27 115.15 69.29 126.79 69.30 138.43 C 56.52 138.40 43.74 138.50 30.97 138.39 C 13.99 137.19 0.32 121.46 0.00 104.70 L 0.00 103.34 C 0.14 92.13 6.47 81.43 16.09 75.73 C 13.26 67.76 15.21 58.28 21.37 52.38 C 27.26 46.29 36.64 44.47 44.57 47.16 C 50.48 34.77 62.28 25.38 75.77 22.72 Z" />
</svg>
