<svg width="160px" height="160px" viewBox="0 0 160 160" xmlns="http://www.w3.org/2000/svg" fill="#fff">
  <path d=" M 42.25 41.24 C 59.04 32.93 78.59 30.19 96.95 34.08 C 117.87 38.38 136.43 50.74 150.61 66.44 C 153.96 70.28 157.52 74.03 160.00 78.51 L 160.00 81.31 C 158.20 85.17 155.18 88.23 152.50 91.48 C 139.06 106.92 121.66 119.47 101.71 124.78 C 83.26 129.84 63.15 128.12 45.70 120.35 C 30.30 113.60 16.99 102.70 6.19 89.91 C 3.93 87.25 1.66 84.57 0.00 81.48 L 0.00 78.70 C 0.61 77.46 1.27 76.25 2.08 75.13 C 12.85 61.17 26.32 49.01 42.25 41.24 M 77.35 46.46 C 72.31 46.85 67.38 48.42 63.02 50.98 C 50.43 58.16 43.62 73.95 47.34 88.01 C 51.01 104.41 68.32 116.11 84.92 113.27 C 102.35 111.04 115.95 93.43 113.39 75.97 C 111.69 58.59 94.73 44.69 77.35 46.46 Z" />
  <path d=" M 76.22 62.29 C 85.56 59.97 95.82 66.59 97.70 76.00 C 99.96 85.00 93.93 94.91 85.05 97.34 C 75.48 100.53 64.28 93.83 62.34 83.98 C 59.91 74.51 66.74 64.21 76.22 62.29 Z" />
</svg>
